<?xml version="1.0" encoding="UTF-8" standalone="no"?>
<!-- Created with Inkscape (http://www.inkscape.org/) -->

<svg
   width="30.48mm"
   height="128.5mm"
   viewBox="0 0 30.479999 128.5"
   version="1.1"
   id="svg1"
   xml:space="preserve"
   inkscape:version="1.4 (e7c3feb1, 2024-10-09)"
   sodipodi:docname="panel-flattened.svg"
   xmlns:inkscape="http://www.inkscape.org/namespaces/inkscape"
   xmlns:sodipodi="http://sodipodi.sourceforge.net/DTD/sodipodi-0.dtd"
   xmlns="http://www.w3.org/2000/svg"
   xmlns:svg="http://www.w3.org/2000/svg"><sodipodi:namedview
     id="namedview1"
     pagecolor="#ffffff"
     bordercolor="#000000"
     borderopacity="0.25"
     inkscape:showpageshadow="2"
     inkscape:pageopacity="0.0"
     inkscape:pagecheckerboard="0"
     inkscape:deskcolor="#d1d1d1"
     inkscape:document-units="mm"
     inkscape:zoom="1.2711951"
     inkscape:cx="112.09924"
     inkscape:cy="287.91804"
     inkscape:window-width="1192"
     inkscape:window-height="929"
     inkscape:window-x="1911"
     inkscape:window-y="195"
     inkscape:window-maximized="0"
     inkscape:current-layer="layer2"
     showgrid="false" /><defs
     id="defs1"><rect
       x="66.866211"
       y="51.132984"
       width="80.239456"
       height="356.35757"
       id="rect34" /><rect
       x="24.386501"
       y="130.58578"
       width="115.63922"
       height="77.879471"
       id="rect32" /><rect
       x="31.466454"
       y="60.572922"
       width="3.1466453"
       height="18.09321"
       id="rect20" /><rect
       x="63.719566"
       y="1.5733227"
       width="66.866211"
       height="92.039375"
       id="rect19" /><rect
       x="-7.0799518"
       y="-6.2932906"
       width="168.34552"
       height="76.306152"
       id="rect13" /></defs><g
     inkscape:label="Layer 1"
     inkscape:groupmode="layer"
     id="layer1"><path
       id="rect2"
       style="fill:#e6e6e6;stroke:#cccccc;stroke-width:0.282298"
       d="M 0.19928598,0.19928591 H 30.396922 V 128.42968 H 0.19928598 Z" /><path
       id="rect50"
       style="display:inline;stroke-width:0.317922"
       d="M 1.1609105,108.04501 H 29.600736 v 11.00065 H 1.1609105 Z" /><path
       id="rect1"
       style="display:inline;stroke-width:0.317921"
       d="M 1.9179218,102.52055 H 28.843722 c 0.419384,0 0.757011,0.33763 0.757011,0.75702 v 12.81682 c 0,0.41939 -0.337627,0.75701 -0.757011,0.75701 H 1.9179218 c -0.4193845,0 -0.7570117,-0.33762 -0.7570117,-0.75701 v -12.81682 c 0,-0.41939 0.3376272,-0.75702 0.7570117,-0.75702 z" /><path
       id="path36"
       style="fill:none;stroke:#666666;stroke-width:0.3"
       d="m 19.764893,36.254521 a 5.6197114,5.6197114 0 0 1 -2.525907,-6.361869 5.6197114,5.6197114 0 0 1 5.493943,-4.082912 5.6197114,5.6197114 0 0 1 5.363018,4.253425 5.6197114,5.6197114 0 0 1 -2.724444,6.27941" /><path
       style="fill:#333333;stroke:#666666;stroke-width:0.376;stroke-dasharray:none"
       d="m 22.64468,25.809046 v 2.49765 z"
       id="path1" /><path
       style="fill:#666666;stroke:#666666;stroke-width:0.266;stroke-dasharray:none"
       d="M 16.95438,31.428759 H 8.6288814 Z"
       id="path5" /><path
       id="path6"
       style="fill:none;stroke:#666666;stroke-width:0.3"
       d="m 19.764893,36.254521 a 5.6197114,5.6197114 0 0 1 -2.525907,-6.361869 5.6197114,5.6197114 0 0 1 5.493943,-4.082912 5.6197114,5.6197114 0 0 1 5.363018,4.253425 5.6197114,5.6197114 0 0 1 -2.724444,6.27941" /><path
       style="fill:#333333;stroke:#666666;stroke-width:0.376;stroke-dasharray:none"
       d="m 22.64468,25.809046 v 2.49765 z"
       id="path7" /><path
       style="fill:#666666;stroke:#666666;stroke-width:0.266;stroke-dasharray:none"
       d="M 16.95438,31.428759 H 8.6288814 Z"
       id="path8" /><path
       id="path9"
       style="fill:none;stroke:#666666;stroke-width:0.3"
       d="m 19.764887,59.173777 a 5.6197114,5.6197114 0 0 1 -2.525907,-6.361869 5.6197114,5.6197114 0 0 1 5.493943,-4.082912 5.6197114,5.6197114 0 0 1 5.363018,4.253425 5.6197114,5.6197114 0 0 1 -2.724444,6.27941" /><path
       style="fill:#333333;stroke:#666666;stroke-width:0.376;stroke-dasharray:none"
       d="m 22.64468,48.728304 v 2.49765 z"
       id="path10" /><path
       style="fill:#666666;stroke:#666666;stroke-width:0.266;stroke-dasharray:none"
       d="M 16.95438,54.348017 H 8.6288814 Z"
       id="path11" /><path
       id="path12"
       style="fill:none;stroke:#666666;stroke-width:0.3"
       d="M 19.764887,81.260569 A 5.6197114,5.6197114 0 0 1 17.23898,74.8987 a 5.6197114,5.6197114 0 0 1 5.493943,-4.082912 5.6197114,5.6197114 0 0 1 5.363018,4.253425 5.6197114,5.6197114 0 0 1 -2.724444,6.27941" /><path
       style="fill:#333333;stroke:#666666;stroke-width:0.376;stroke-dasharray:none"
       d="m 22.64468,70.815092 v 2.49765 z"
       id="path13" /><path
       style="fill:#666666;stroke:#666666;stroke-width:0.266;stroke-dasharray:none"
       d="M 16.95438,76.434805 H 8.6288814 Z"
       id="path14" /><path
       style="font-size:2.82222px;font-family:Sans;-inkscape-font-specification:'Sans, Normal';fill:#e6e6e6;stroke:#cccccc;stroke-width:0.2"
       d="m 18.869615,105.07509 q 0.125401,0.1378 0.191547,0.33762 0.06752,0.19981 0.06752,0.45337 0,0.25356 -0.0689,0.45475 -0.06752,0.19982 -0.190169,0.33349 -0.126779,0.13918 -0.300412,0.20946 -0.172255,0.0703 -0.394119,0.0703 -0.216352,0 -0.394118,-0.0717 -0.176389,-0.0716 -0.300412,-0.20808 -0.124024,-0.13643 -0.191548,-0.33486 -0.06614,-0.19844 -0.06614,-0.45338 0,-0.2508 0.06614,-0.44924 0.06615,-0.19981 0.192926,-0.34175 0.121267,-0.13505 0.300412,-0.20671 0.180523,-0.0717 0.39274,-0.0717 0.220486,0 0.395497,0.073 0.176389,0.0717 0.299034,0.20533 z m -0.02481,0.79099 q 0,-0.39963 -0.179144,-0.61598 -0.179145,-0.21773 -0.489204,-0.21773 -0.312814,0 -0.491959,0.21773 -0.177767,0.21635 -0.177767,0.61598 0,0.40377 0.181901,0.61874 0.181901,0.2136 0.487825,0.2136 0.305925,0 0.486447,-0.2136 0.181901,-0.21497 0.181901,-0.61874 z m 2.261359,0.2012 q 0,0.22324 -0.04961,0.38998 -0.04823,0.16536 -0.159852,0.27561 -0.106109,0.10473 -0.248047,0.15296 -0.141938,0.0482 -0.330729,0.0482 -0.192925,0 -0.336241,-0.051 -0.143316,-0.051 -0.241156,-0.1502 -0.111621,-0.113 -0.161231,-0.27285 -0.04823,-0.15986 -0.04823,-0.39274 v -1.22784 h 0.272851 v 1.24162 q 0,0.16674 0.02205,0.2632 0.02343,0.0965 0.07717,0.17501 0.06063,0.0896 0.163986,0.13505 0.104731,0.0455 0.250803,0.0455 0.14745,0 0.250803,-0.0441 0.103353,-0.0455 0.165364,-0.13643 0.05374,-0.0786 0.07579,-0.17914 0.02343,-0.10198 0.02343,-0.25218 v -1.24851 h 0.272851 z m 1.984374,-0.9853 h -0.733116 v 1.80936 h -0.272851 v -1.80936 H 21.35146 v -0.24254 h 1.739083 z m 1.617815,0.37758 q 0,0.13643 -0.04823,0.25356 -0.04685,0.11576 -0.132291,0.20119 -0.106109,0.10611 -0.250803,0.15986 -0.144694,0.0524 -0.36518,0.0524 h -0.272851 v 0.76481 H 23.36615 v -2.0519 h 0.556727 q 0.184657,0 0.312815,0.0317 0.128157,0.0303 0.227376,0.0965 0.117133,0.0785 0.180523,0.19568 0.06477,0.11714 0.06477,0.29628 z m -0.283875,0.007 q 0,-0.10611 -0.03721,-0.18466 -0.03721,-0.0785 -0.112999,-0.12815 -0.06615,-0.0427 -0.151584,-0.0606 -0.08406,-0.0193 -0.213596,-0.0193 h -0.270095 v 0.81993 h 0.230132 q 0.165364,0 0.268717,-0.0289 0.103353,-0.0303 0.168121,-0.0951 0.06477,-0.0662 0.09095,-0.13918 0.02756,-0.073 0.02756,-0.16399 z m 2.188323,0.60083 q 0,0.22324 -0.04961,0.38998 -0.04823,0.16536 -0.159853,0.27561 -0.106108,0.10473 -0.248046,0.15296 -0.141938,0.0482 -0.330729,0.0482 -0.192925,0 -0.336241,-0.051 -0.143316,-0.051 -0.241157,-0.1502 -0.111621,-0.113 -0.16123,-0.27285 -0.04823,-0.15986 -0.04823,-0.39274 v -1.22784 h 0.272851 v 1.24162 q 0,0.16674 0.02205,0.2632 0.02343,0.0965 0.07717,0.17501 0.06063,0.0896 0.163986,0.13505 0.104731,0.0455 0.250803,0.0455 0.14745,0 0.250803,-0.0441 0.103352,-0.0455 0.165364,-0.13643 0.05374,-0.0786 0.07579,-0.17914 0.02343,-0.10198 0.02343,-0.25218 v -1.24851 h 0.272851 z m 1.984373,-0.9853 h -0.733116 v 1.80936 h -0.272851 v -1.80936 h -0.733116 v -0.24254 h 1.739083 z"
       id="text21"
       inkscape:label="text21"
       aria-label="OUTPUT" /><path
       style="font-size:2.82222px;font-family:Sans;-inkscape-font-specification:'Sans, Normal';fill:#e6e6e6;stroke:#cccccc;stroke-width:0.2"
       d="m 6.0244478,106.74285 q -0.1681205,0.0772 -0.3679359,0.13505 -0.1984374,0.0565 -0.3844724,0.0565 -0.2397784,0 -0.4395938,-0.0661 -0.1998154,-0.0662 -0.3403752,-0.19844 -0.1419378,-0.13367 -0.2191079,-0.33348 -0.07717,-0.2012 -0.07717,-0.46991 0,-0.49196 0.2866317,-0.77584 0.2880098,-0.28525 0.7896153,-0.28525 0.1750107,0 0.3569116,0.0427 0.183279,0.0413 0.3941187,0.14193 v 0.32384 h -0.024805 q -0.042719,-0.0331 -0.1240233,-0.0868 -0.081304,-0.0538 -0.1598524,-0.0896 -0.095084,-0.0427 -0.2163518,-0.0703 -0.1198892,-0.0289 -0.2728513,-0.0289 -0.3445093,0 -0.5457028,0.22186 -0.1998153,0.22049 -0.1998153,0.59807 0,0.39825 0.2094616,0.62011 0.2094616,0.22049 0.5705074,0.22049 0.1322915,0 0.2632051,-0.0262 0.1322915,-0.0262 0.2315102,-0.0675 v -0.50298 H 5.2045157 v -0.23978 h 0.8199321 z m 2.0946165,0.15158 H 7.8282985 L 7.627105,106.32255 H 6.7396491 l -0.2011934,0.57188 H 6.2614702 l 0.7468962,-2.0519 h 0.3638018 z m -0.5760195,-0.80615 -0.3596677,-1.00734 -0.3610458,1.00734 z M 9.728612,105.08507 H 8.9954963 v 1.80936 H 8.7226449 v -1.80936 H 7.9895291 v -0.24254 H 9.728612 Z m 1.627462,1.80936 h -1.351855 v -2.0519 h 1.351855 v 0.24254 h -1.079003 v 0.56224 h 1.079003 v 0.24253 h -1.079003 v 0.76206 h 1.079003 z"
       id="text22"
       aria-label="GATE" /><path
       style="font-size:5.64444px;font-family:Sans;-inkscape-font-specification:'Sans, Normal';fill:#ffffff;stroke:#1a1a1a;stroke-width:0.2"
       d="m 5.1226782,11.899129 h -0.518142 v -0.322461 q -0.223242,0.192925 -0.4657766,0.300412 -0.2425345,0.107487 -0.5264102,0.107487 -0.5512148,0 -0.8764316,-0.424435 -0.3224607,-0.424436 -0.3224607,-1.176844 0,-0.3913625 0.110243,-0.6972868 0.112999,-0.3059242 0.3031682,-0.520898 0.187413,-0.2094616 0.4354597,-0.3197046 0.2508028,-0.110243 0.518142,-0.110243 0.2425345,0 0.4299476,0.052365 0.187413,0.049609 0.3941186,0.1570963 v -1.33394 h 0.518142 z M 4.6045362,11.141208 V 9.3745649 Q 4.3950745,9.2808583 4.2297101,9.2450294 4.0643456,9.2092004 3.8686644,9.2092004 q -0.4354598,0 -0.6779943,0.3031682 -0.2425346,0.3031681 -0.2425346,0.8598954 0,0.548459 0.1874131,0.83509 0.187413,0.283876 0.6008242,0.283876 0.2204859,0 0.446484,-0.09646 0.2259981,-0.09922 0.4216794,-0.253559 z M 8.7193551,10.413605 H 6.451106 q 0,0.283876 0.085438,0.496093 0.085438,0.209462 0.2342663,0.34451 0.1433159,0.132291 0.3389971,0.198437 0.1984374,0.06615 0.4354598,0.06615 0.3141924,0 0.631141,-0.124024 0.3197046,-0.126779 0.4547523,-0.248046 h 0.027561 v 0.564995 q -0.2618271,0.110243 -0.5346784,0.184657 -0.2728514,0.07441 -0.5732635,0.07441 -0.7661886,0 -1.1961362,-0.413411 -0.4299476,-0.416168 -0.4299476,-1.1796 0,-0.7551645 0.4106551,-1.1988924 0.4134111,-0.443728 1.0858932,-0.443728 0.6228728,0 0.9591139,0.3638018 0.3389971,0.3638018 0.3389971,1.0335276 z M 8.2149935,10.01673 Q 8.2122375,9.6088312 8.008288,9.3855891 7.8070945,9.1623471 7.3936834,9.1623471 q -0.4161672,0 -0.6642139,0.2452906 Q 6.4841789,9.6529284 6.451106,10.01673 Z m 3.8667725,0.396875 H 9.8135165 q 0,0.283876 0.085438,0.496093 0.085438,0.209462 0.2342662,0.34451 0.143316,0.132291 0.338997,0.198437 0.198438,0.06615 0.43546,0.06615 0.314192,0 0.631141,-0.124024 0.319705,-0.126779 0.454752,-0.248046 h 0.02756 v 0.564995 q -0.261827,0.110243 -0.534678,0.184657 -0.272852,0.07441 -0.573264,0.07441 -0.766188,0 -1.1961361,-0.413411 -0.4299476,-0.416168 -0.4299476,-1.1796 0,-0.7551645 0.4106551,-1.1988924 0.4134116,-0.443728 1.0858936,-0.443728 0.622872,0 0.959114,0.3638018 0.338997,0.3638018 0.338997,1.0335276 z M 11.577404,10.01673 q -0.0028,-0.4078988 -0.206705,-0.6311409 -0.201194,-0.223242 -0.614605,-0.223242 -0.416167,0 -0.664214,0.2452906 Q 9.8465894,9.6529284 9.8135165,10.01673 Z m 3.999063,0.305924 q 0,0.374827 -0.107487,0.686263 -0.107486,0.30868 -0.303168,0.523654 -0.181901,0.20395 -0.429947,0.316949 -0.245291,0.110243 -0.520898,0.110243 -0.239779,0 -0.43546,-0.05237 -0.192925,-0.05236 -0.394119,-0.162608 v 1.289843 H 12.867246 V 8.8205939 h 0.518142 v 0.3224607 q 0.206706,-0.1736327 0.463021,-0.2893878 0.259071,-0.1185112 0.551215,-0.1185112 0.556727,0 0.865407,0.4216794 0.311436,0.4189233 0.311436,1.165819 z m -0.534678,0.01378 q 0,-0.5567272 -0.190169,-0.8323347 -0.190169,-0.2756074 -0.584288,-0.2756074 -0.223242,0 -0.44924,0.096463 -0.225998,0.096463 -0.432704,0.2535589 v 1.7445946 q 0.220486,0.09922 0.377582,0.135048 0.159853,0.03583 0.361046,0.03583 0.432704,0 0.675238,-0.292144 0.242535,-0.292144 0.242535,-0.865407 z m 3.916382,1.562694 h -0.518142 v -1.752863 q 0,-0.2122181 -0.02481,-0.396875 -0.0248,-0.1874131 -0.09095,-0.2921439 -0.0689,-0.1157551 -0.198437,-0.1708766 -0.129536,-0.057878 -0.336242,-0.057878 -0.212217,0 -0.443728,0.1047308 -0.23151,0.1047309 -0.443727,0.2673392 V 11.899129 H 16.383998 V 8.8205939 h 0.518142 v 0.3417532 q 0.242534,-0.2011934 0.501605,-0.3141924 0.259071,-0.1129991 0.531922,-0.1129991 0.49885,0 0.760677,0.3004121 0.261827,0.3004121 0.261827,0.8654073 z m 3.621481,-1.53789 q 0,0.752409 -0.38585,1.187868 -0.385851,0.43546 -1.033528,0.43546 -0.65319,0 -1.03904,-0.43546 -0.383095,-0.435459 -0.383095,-1.187868 0,-0.7524078 0.383095,-1.1878676 0.38585,-0.4382158 1.03904,-0.4382158 0.647677,0 1.033528,0.4382158 0.38585,0.4354598 0.38585,1.1878676 z m -0.534678,0 q 0,-0.5980677 -0.234267,-0.8874555 -0.234266,-0.2921438 -0.650433,-0.2921438 -0.42168,0 -0.655946,0.2921438 -0.23151,0.2893878 -0.23151,0.8874555 0,0.578776 0.234266,0.879188 0.234266,0.297656 0.65319,0.297656 0.413411,0 0.647677,-0.2949 0.237023,-0.297656 0.237023,-0.881944 z m 2.935219,1.510329 q -0.146072,0.03858 -0.319705,0.06339 -0.170876,0.02481 -0.305924,0.02481 -0.471289,0 -0.716579,-0.253559 -0.245291,-0.253559 -0.245291,-0.813042 V 9.2560537 H 23.042672 V 8.8205939 h 0.350022 V 7.9358941 h 0.518142 v 0.8846998 h 1.069357 v 0.4354598 h -1.069357 v 1.4028413 q 0,0.242535 0.01102,0.380339 0.01102,0.135047 0.07717,0.253559 0.06063,0.110243 0.165365,0.162608 0.107487,0.04961 0.325217,0.04961 0.126779,0 0.264583,-0.03583 0.137803,-0.03859 0.198437,-0.06339 h 0.02756 z m 3.202558,-1.457963 h -2.268249 q 0,0.283876 0.08544,0.496093 0.08544,0.209462 0.234266,0.34451 0.143316,0.132291 0.338997,0.198437 0.198438,0.06615 0.43546,0.06615 0.314193,0 0.631141,-0.124024 0.319705,-0.126779 0.454752,-0.248046 h 0.02756 v 0.564995 q -0.261827,0.110243 -0.534678,0.184657 -0.272852,0.07441 -0.573264,0.07441 -0.766188,0 -1.196136,-0.413411 -0.429948,-0.416168 -0.429948,-1.1796 0,-0.7551645 0.410655,-1.1988924 0.413412,-0.443728 1.085894,-0.443728 0.622873,0 0.959114,0.3638018 0.338997,0.3638018 0.338997,1.0335276 z M 27.678389,10.01673 q -0.0028,-0.4078988 -0.206705,-0.6311409 -0.201194,-0.223242 -0.614605,-0.223242 -0.416167,0 -0.664214,0.2452906 -0.245291,0.2452907 -0.278363,0.6090923 z"
       id="text31"
       aria-label="deepnote" /><path
       style="font-size:2.82222px;font-family:'Devanagari Sangam MN';-inkscape-font-specification:'Devanagari Sangam MN, Normal';fill:#4d4d4d;stroke:#4d4d4d;stroke-width:0.2"
       d="m 18.560177,45.081857 v 0.186035 h -0.636653 v 1.736327 H 17.719575 V 45.267892 H 17.0843 v -0.186035 z m 1.30638,0 0.698664,1.922362 H 20.353004 L 20.13114,46.392371 H 19.313964 L 19.0921,47.004219 h -0.21084 l 0.704177,-1.922362 z m -0.143316,0.190169 -0.352778,0.966004 h 0.704177 z m 2.651343,0.356912 q 0,0.07166 -0.01791,0.14056 -0.01654,0.0689 -0.05099,0.130913 -0.03445,0.06063 -0.08544,0.111621 -0.04961,0.05099 -0.117133,0.08819 0.07579,0.01929 0.122645,0.05926 0.04823,0.03859 0.07441,0.09095 0.02756,0.05099 0.03721,0.112999 0.01102,0.06063 0.01102,0.124023 v 0.289388 q 0,0.06201 0.01654,0.121267 0.01791,0.05788 0.0441,0.106109 h -0.221864 q -0.01378,-0.02205 -0.02205,-0.04961 -0.0069,-0.02894 -0.01103,-0.05926 -0.0041,-0.03032 -0.0055,-0.05788 -0.0014,-0.02894 -0.0014,-0.04961 v -0.305924 q 0,-0.05512 -0.01929,-0.108865 -0.01791,-0.05512 -0.06063,-0.09784 -0.04134,-0.04272 -0.108865,-0.0689 -0.06752,-0.02618 -0.163986,-0.02618 h -0.581532 v 0.824066 h -0.20395 v -1.922362 h 0.785482 q 0.140559,0 0.248046,0.04961 0.108865,0.04823 0.181901,0.126779 0.07441,0.07717 0.111621,0.175011 0.03858,0.09784 0.03858,0.195681 z m -1.161685,0.370692 h 0.581532 q 0.07579,0 0.143315,-0.02894 0.06752,-0.02894 0.118512,-0.07993 0.05237,-0.05099 0.08268,-0.118511 0.03032,-0.06752 0.03032,-0.146072 0,-0.07717 -0.02894,-0.141938 -0.02756,-0.06615 -0.07855,-0.114377 -0.04961,-0.04823 -0.118511,-0.07441 -0.0689,-0.02756 -0.148828,-0.02756 h -0.581532 z m 1.79696,0.03996 q 0,0.198437 0.05237,0.352778 0.05374,0.15434 0.144694,0.260449 0.09095,0.106108 0.210839,0.162608 0.11989,0.05512 0.253559,0.05512 0.07855,0 0.15434,-0.02618 0.07717,-0.02756 0.146072,-0.07441 0.07028,-0.04685 0.129536,-0.111621 0.05926,-0.06615 0.103353,-0.141938 0.0441,-0.07717 0.0689,-0.162608 0.02618,-0.08544 0.02894,-0.173633 h -0.59669 V 45.99963 h 0.790993 v 1.004589 H 24.37136 l -0.06063,-0.341753 q -0.04823,0.07441 -0.119889,0.144694 -0.07028,0.0689 -0.15434,0.124023 -0.08406,0.05512 -0.176389,0.08819 -0.09233,0.03307 -0.183279,0.03307 -0.201193,0 -0.362423,-0.07717 -0.161231,-0.07855 -0.27423,-0.213595 -0.112999,-0.136426 -0.173633,-0.321083 -0.06063,-0.186035 -0.06063,-0.401009 0,-0.125401 0.0248,-0.248047 0.02618,-0.124023 0.07579,-0.235644 0.05099,-0.111621 0.124023,-0.206706 0.07441,-0.09646 0.169498,-0.165364 0.09509,-0.07028 0.21084,-0.110243 0.117133,-0.03996 0.252181,-0.03996 0.170877,0 0.304546,0.0441 0.135048,0.0441 0.235644,0.124023 0.100597,0.07993 0.166743,0.19017 0.06752,0.110243 0.104731,0.242534 h -0.216352 q -0.07441,-0.214974 -0.220486,-0.318326 -0.144694,-0.103353 -0.374826,-0.103353 -0.143316,0 -0.263205,0.06615 -0.119889,0.06614 -0.206706,0.179144 -0.08682,0.112999 -0.135047,0.263205 -0.04823,0.150207 -0.04823,0.318327 z m 3.318314,-0.957736 v 0.186035 h -1.077625 v 0.650434 h 1.014235 v 0.186035 h -1.014235 v 0.713823 h 1.125856 v 0.186035 h -1.329806 v -1.922362 z m 1.876887,0 v 0.186035 h -0.636654 v 1.736327 h -0.203949 v -1.736327 h -0.635275 v -0.186035 z"
       id="text33"
       aria-label="TARGET" /><path
       style="font-size:2.82222px;font-family:Sans;-inkscape-font-specification:'Sans, Normal';fill:#4d4d4d;stroke:#4d4d4d;stroke-width:0.2"
       d="m 20.933846,68.995766 h -0.354155 l -0.686263,-0.815798 h -0.384472 v 0.815798 h -0.272852 v -2.051898 h 0.574642 q 0.186035,0 0.310058,0.02481 0.124024,0.02343 0.223242,0.08544 0.111621,0.07028 0.173633,0.177767 0.06339,0.106109 0.06339,0.270095 0,0.221864 -0.111621,0.37207 -0.111621,0.148828 -0.307303,0.224621 z m -0.638031,-1.4745 q 0,-0.08819 -0.0317,-0.155718 -0.03032,-0.0689 -0.101975,-0.115755 -0.05926,-0.03996 -0.140559,-0.05512 -0.08131,-0.01654 -0.191548,-0.01654 h -0.321082 v 0.774457 h 0.275607 q 0.129536,0 0.225998,-0.02205 0.09646,-0.02343 0.163987,-0.08544 0.06201,-0.05788 0.09095,-0.132292 0.03032,-0.07579 0.03032,-0.191547 z m 2.52043,1.4745 H 22.525479 L 22.324286,68.42388 H 21.43683 l -0.201194,0.571886 h -0.276985 l 0.746896,-2.051898 h 0.363802 z m -0.57602,-0.806152 -0.359667,-1.007345 -0.361046,1.007345 z m 2.185567,-1.003211 h -0.733115 v 1.809363 h -0.272852 v -1.809363 h -0.733116 v -0.242535 h 1.739083 z m 1.627462,1.809363 H 24.7014 v -2.051898 h 1.351854 v 0.242535 h -1.079003 v 0.562239 h 1.079003 v 0.242535 h -1.079003 v 0.762054 h 1.079003 z"
       id="text25"
       aria-label="RATE" /><path
       style="font-size:2.82222px;font-family:'Devanagari Sangam MN';-inkscape-font-specification:'Devanagari Sangam MN, Normal';fill:#4d4d4d;stroke:#4d4d4d;stroke-width:0.2"
       d="m 17.205567,22.316833 h 0.712445 q 0.126779,0 0.237022,0.03445 0.111621,0.03445 0.202572,0.09784 0.09233,0.06201 0.163986,0.150206 0.07304,0.08819 0.122645,0.194303 0.04961,0.106109 0.07579,0.228754 0.02618,0.121267 0.02618,0.252181 0,0.205327 -0.06063,0.381716 -0.06063,0.175011 -0.170877,0.305924 -0.108865,0.129536 -0.261827,0.20395 -0.151584,0.07304 -0.334863,0.07304 h -0.712445 z m 0.203949,1.736327 h 0.427192 q 0.151584,0 0.281119,-0.05237 0.129536,-0.05236 0.223242,-0.151584 0.09508,-0.09922 0.14745,-0.242534 0.05374,-0.144694 0.05374,-0.327973 0,-0.199815 -0.05374,-0.345887 -0.05374,-0.14745 -0.148828,-0.242535 -0.09508,-0.09508 -0.22462,-0.14056 -0.128157,-0.04685 -0.278363,-0.04685 h -0.427192 z m 3.059243,-1.736327 v 0.186035 h -1.077625 v 0.650434 h 1.014235 v 0.186035 h -1.014235 v 0.713823 h 1.125856 v 0.186035 h -1.329806 v -1.922362 z m 1.876886,0 v 0.186035 h -0.636653 v 1.736327 h -0.203949 v -1.736327 h -0.635275 v -0.186035 z m 0.627007,0 v 1.295355 q 0,0.117133 0.04272,0.21084 0.0441,0.09233 0.113,0.157096 0.07028,0.06477 0.157096,0.09922 0.08819,0.03445 0.177767,0.03445 0.09371,0 0.187413,-0.03169 0.09508,-0.03169 0.169498,-0.09371 0.07579,-0.06201 0.122645,-0.15434 0.04823,-0.09371 0.04823,-0.216352 v -1.300867 h 0.202571 v 1.287087 q 0,0.16812 -0.06477,0.297656 -0.06477,0.128157 -0.169498,0.216352 -0.103353,0.08682 -0.234266,0.132291 -0.129536,0.04547 -0.260449,0.04547 -0.124024,0 -0.248047,-0.04547 -0.124023,-0.0441 -0.22462,-0.130913 -0.09922,-0.0882 -0.161231,-0.21773 -0.06201,-0.130914 -0.06201,-0.303168 v -1.281575 z m 2.047763,0 0.978407,1.661913 v -1.661913 h 0.203949 v 1.922362 H 25.92992 L 24.951514,22.57866 v 1.660535 h -0.20395 v -1.922362 z m 3.015145,0 v 0.186035 h -1.077625 v 0.650434 h 1.014236 v 0.186035 h -1.014236 v 0.713823 h 1.125857 v 0.186035 h -1.329806 v -1.922362 z"
       id="text15"
       aria-label="DETUNE" /><path
       style="font-size:2.82222px;font-family:Sans;-inkscape-font-specification:'Sans, Normal';fill:#4d4d4d;stroke:#4d4d4d;stroke-width:0.2"
       d="m 7.1038022,87.995589 q -0.075792,0.03307 -0.1378037,0.06201 -0.060634,0.02894 -0.1598523,0.06063 -0.08406,0.02618 -0.1832789,0.0441 -0.097841,0.01929 -0.2163519,0.01929 -0.223242,0 -0.4065209,-0.06201 -0.1819009,-0.06339 -0.3169486,-0.197059 -0.1322915,-0.130914 -0.2067055,-0.332107 -0.074414,-0.202572 -0.074414,-0.469911 0,-0.253559 0.071658,-0.453374 0.071658,-0.199815 0.2067055,-0.337619 0.1309136,-0.13367 0.3155706,-0.20395 0.186035,-0.07028 0.4120331,-0.07028 0.1653644,0 0.3293508,0.03996 0.1653645,0.03996 0.3665579,0.140559 v 0.323839 h -0.02067 Q 6.9136331,86.417736 6.7468906,86.352969 6.5801481,86.288201 6.389979,86.288201 q -0.1557182,0 -0.2811196,0.05099 -0.1240233,0.04961 -0.221864,0.155718 -0.095084,0.103353 -0.148828,0.261827 -0.052365,0.157097 -0.052365,0.363802 0,0.216352 0.057878,0.37207 0.059256,0.155718 0.151584,0.253559 0.096463,0.101975 0.2246201,0.151584 0.1295355,0.04823 0.2728514,0.04823 0.1970593,0 0.3693139,-0.06752 0.1722547,-0.06752 0.3224607,-0.202572 h 0.019292 z m 1.7280586,-1.282953 q 0,0.136426 -0.048231,0.253559 -0.046853,0.115755 -0.1322916,0.201193 -0.1061088,0.106109 -0.2508027,0.159853 -0.1446939,0.05236 -0.3651799,0.05236 H 7.762504 v 0.764811 H 7.4896526 v -2.051898 h 0.556727 q 0.184657,0 0.3128144,0.03169 0.1281575,0.03032 0.2273762,0.09646 0.1171331,0.07855 0.1805228,0.195681 0.064768,0.117133 0.064768,0.296278 z m -0.2838757,0.0069 q 0,-0.106108 -0.037207,-0.184657 -0.037207,-0.07855 -0.112999,-0.128157 -0.066146,-0.04272 -0.1515841,-0.06063 -0.08406,-0.01929 -0.2135958,-0.01929 H 7.762504 v 0.819932 h 0.2301322 q 0.1653644,0 0.2687172,-0.02894 0.1033528,-0.03032 0.1681205,-0.09508 0.064768,-0.06615 0.09095,-0.139182 0.027561,-0.07304 0.027561,-0.163987 z m 1.8617279,1.424891 H 9.2990155 V 87.934955 H 9.7262071 V 86.559674 H 9.2990155 v -0.187413 q 0.086816,0 0.1860351,-0.01378 0.099219,-0.01516 0.150206,-0.04272 0.06339,-0.03445 0.099219,-0.08682 0.037207,-0.05374 0.042719,-0.143316 h 0.2135958 v 1.849326 h 0.4189228 z"
       id="text28"
       aria-label="CP1" /><path
       d="m 12.834683,120.0544 h 0.545015 v 4.07314 h -0.545015 v -0.24598 q -0.320739,0.3135 -0.725883,0.3135 -0.482315,0 -0.800642,-0.35208 -0.315916,-0.35933 -0.315916,-0.89711 0,-0.52572 0.315916,-0.87781 0.313504,-0.3545 0.788584,-0.3545 0.412379,0 0.737941,0.33762 z m -1.28778,2.89147 q 0,0.33762 0.180868,0.54984 0.185691,0.21463 0.467845,0.21463 0.301447,0 0.487138,-0.2074 0.185691,-0.21463 0.185691,-0.54501 0,-0.33039 -0.185691,-0.54502 -0.185691,-0.2098 -0.482315,-0.2098 -0.279742,0 -0.467845,0.21221 -0.185691,0.21463 -0.185691,0.53055 z m 2.517682,-1.1672 h 0.542604 v 0.21704 q 0.156752,-0.16399 0.267684,-0.22186 0.118167,-0.0603 0.296623,-0.0603 0.39791,0 0.629421,0.34726 0.255626,-0.34726 0.692121,-0.34726 0.793407,0 0.793407,0.96221 v 1.45177 H 16.74143 v -1.30466 q 0,-0.33762 -0.08199,-0.47749 -0.08441,-0.14228 -0.277331,-0.14228 -0.224277,0 -0.327974,0.16881 -0.101286,0.16881 -0.101286,0.5426 v 1.21302 h -0.545015 v -1.29743 q 0,-0.627 -0.361736,-0.627 -0.2291,0 -0.335209,0.17122 -0.103697,0.17122 -0.103697,0.54019 v 1.21302 h -0.542604 z m 4.449351,0 v 2.34887 h -0.542604 v -2.34887 z m -0.624598,-0.97669 q 0,-0.14228 0.103698,-0.24598 0.103698,-0.1037 0.248392,-0.1037 0.147106,0 0.250803,0.1037 0.103698,0.10129 0.103698,0.24839 0,0.14711 -0.103698,0.25081 -0.101286,0.1037 -0.248391,0.1037 -0.147106,0 -0.250804,-0.1037 -0.103698,-0.1037 -0.103698,-0.25322 z"
       id="text2"
       style="font-size:4.9389px;font-family:Futura;-inkscape-font-specification:'Futura, Normal';fill:#918a6f;stroke:#918a6f;stroke-width:0.3"
       aria-label="dmi" /><path
       style="font-size:2.82222px;font-family:Sans;-inkscape-font-specification:'Sans, Normal';fill:#4d4d4d;stroke:#4d4d4d;stroke-width:0.2"
       d="m 21.897202,87.995589 q -0.07579,0.03307 -0.137804,0.06201 -0.06063,0.02894 -0.159852,0.06063 -0.08406,0.02618 -0.183279,0.0441 -0.09784,0.01929 -0.216352,0.01929 -0.223242,0 -0.406521,-0.06201 -0.181901,-0.06339 -0.316948,-0.197059 -0.132292,-0.130914 -0.206706,-0.332107 -0.07441,-0.202572 -0.07441,-0.469911 0,-0.253559 0.07166,-0.453374 0.07166,-0.199815 0.206706,-0.337619 0.130913,-0.13367 0.31557,-0.20395 0.186035,-0.07028 0.412033,-0.07028 0.165365,0 0.329351,0.03996 0.165365,0.03996 0.366558,0.140559 v 0.323839 h -0.02067 q -0.169498,-0.141938 -0.336241,-0.206705 -0.166742,-0.06477 -0.356911,-0.06477 -0.155718,0 -0.28112,0.05099 -0.124023,0.04961 -0.221864,0.155718 -0.09508,0.103353 -0.148828,0.261827 -0.05236,0.157097 -0.05236,0.363802 0,0.216352 0.05788,0.37207 0.05926,0.155718 0.151584,0.253559 0.09646,0.101975 0.224621,0.151584 0.129535,0.04823 0.272851,0.04823 0.197059,0 0.369314,-0.06752 0.172254,-0.06752 0.322461,-0.202572 h 0.01929 z m 1.728059,-1.282953 q 0,0.136426 -0.04823,0.253559 -0.04685,0.115755 -0.132291,0.201193 -0.106109,0.106109 -0.250803,0.159853 -0.144694,0.05236 -0.36518,0.05236 h -0.272851 v 0.764811 h -0.272852 v -2.051898 h 0.556727 q 0.184657,0 0.312815,0.03169 0.128157,0.03032 0.227376,0.09646 0.117133,0.07855 0.180523,0.195681 0.06477,0.117133 0.06477,0.296278 z m -0.283876,0.0069 q 0,-0.106108 -0.03721,-0.184657 -0.03721,-0.07855 -0.112999,-0.128157 -0.06615,-0.04272 -0.151584,-0.06063 -0.08406,-0.01929 -0.213596,-0.01929 h -0.270095 v 0.819932 h 0.230132 q 0.165364,0 0.268717,-0.02894 0.103353,-0.03032 0.168121,-0.09508 0.06477,-0.06615 0.09095,-0.139182 0.02756,-0.07304 0.02756,-0.163987 z m 1.978861,1.424891 h -1.389061 v -0.28801 q 0.144694,-0.124023 0.289388,-0.248047 0.146072,-0.124023 0.271473,-0.246668 0.264583,-0.256315 0.362424,-0.406521 0.09784,-0.151584 0.09784,-0.326595 0,-0.159852 -0.106109,-0.249425 -0.104731,-0.09095 -0.293522,-0.09095 -0.125402,0 -0.271474,0.0441 -0.146071,0.0441 -0.285253,0.135048 h -0.01378 v -0.289388 q 0.09784,-0.04823 0.260449,-0.08819 0.163987,-0.03996 0.316949,-0.03996 0.31557,0 0.494715,0.152962 0.179145,0.151585 0.179145,0.412034 0,0.117133 -0.03032,0.219107 -0.02894,0.100597 -0.08682,0.191548 -0.05374,0.08544 -0.126779,0.16812 -0.07166,0.08268 -0.175011,0.183279 -0.14745,0.144694 -0.304546,0.28112 -0.157097,0.135047 -0.293522,0.250802 h 1.103807 z"
       id="text14"
       aria-label="CP2" /><path
       style="fill:#8080ff;stroke:#8080ff;stroke-width:2.066;stroke-dasharray:none"
       d="M 19.460853,15.202859 H 11.135354 Z"
       id="path17" /></g><g
     inkscape:groupmode="layer"
     id="layer2"
     inkscape:label="components"
     style="display:none"><ellipse
       style="display:inline;fill:none;stroke:#0000ff;stroke-width:0.330606;stroke-dasharray:none;stroke-opacity:1"
       id="ellipse1"
       cx="23.439186"
       cy="112.64246"
       rx="1.1899413"
       ry="1.189941"
       inkscape:label="output" /><ellipse
       style="display:inline;fill:none;stroke:#00ff00;stroke-width:0.330606;stroke-dasharray:none;stroke-opacity:1"
       id="ellipse8"
       cx="6.3331103"
       cy="76.072433"
       rx="1.1899413"
       ry="1.1899412"
       inkscape:label="root_cv" /><ellipse
       style="display:inline;fill:none;stroke:#0000ff;stroke-width:0.330606;stroke-dasharray:none;stroke-opacity:1"
       id="ellipse51"
       cx="7.7759333"
       cy="112.85062"
       rx="1.1899413"
       ry="1.189941"
       inkscape:label="gate" /><ellipse
       style="display:inline;fill:none;stroke:#00ff00;stroke-width:0.330606;stroke-dasharray:none;stroke-opacity:1"
       id="ellipse52"
       cx="6.3331103"
       cy="53.985645"
       rx="1.1899413"
       ry="1.1899412"
       inkscape:label="target_cv" /><ellipse
       style="display:inline;fill:none;stroke:#00ff00;stroke-width:0.330606;stroke-dasharray:none;stroke-opacity:1"
       id="ellipse53"
       cx="6.3183198"
       cy="31.428759"
       rx="1.1899413"
       ry="1.1899412"
       inkscape:label="detune_cv" /><ellipse
       style="display:inline;fill:none;stroke:#ff0000;stroke-width:0.330606;stroke-dasharray:none;stroke-opacity:1"
       id="ellipse54"
       cx="22.64468"
       cy="31.428759"
       rx="1.1899413"
       ry="1.1899412"
       inkscape:label="detune" /><ellipse
       style="display:inline;fill:none;stroke:#ff0000;stroke-width:0.330606;stroke-dasharray:none;stroke-opacity:1"
       id="ellipse55"
       cx="22.64468"
       cy="53.985645"
       rx="1.1899413"
       ry="1.1899412"
       inkscape:label="target" /><ellipse
       style="display:inline;fill:none;stroke:#ff0000;stroke-width:0.330606;stroke-dasharray:none;stroke-opacity:1"
       id="ellipse56"
       cx="22.64468"
       cy="76.072433"
       rx="1.1899413"
       ry="1.1899412"
       inkscape:label="rate" /><ellipse
       style="display:inline;fill:none;stroke:#ff0000;stroke-width:0.330606;stroke-dasharray:none;stroke-opacity:1"
       id="ellipse57"
       cx="22.757786"
       cy="91.890884"
       rx="1.1899413"
       ry="1.1899412"
       inkscape:label="cp2" /><ellipse
       style="display:inline;fill:none;stroke:#ff0000;stroke-width:0.330606;stroke-dasharray:none;stroke-opacity:1"
       id="ellipse58"
       cx="7.9058199"
       cy="91.890884"
       rx="1.1899413"
       ry="1.1899412"
       inkscape:label="cp1" /></g></svg>
