<?xml version="1.0" encoding="UTF-8" standalone="no"?>
<!-- Created with Inkscape (http://www.inkscape.org/) -->

<svg
   width="30.48mm"
   height="128.5mm"
   viewBox="0 0 30.479999 128.5"
   version="1.1"
   id="svg1"
   xml:space="preserve"
   inkscape:version="1.4 (e7c3feb1, 2024-10-09)"
   sodipodi:docname="panel-flattened.svg"
   xmlns:inkscape="http://www.inkscape.org/namespaces/inkscape"
   xmlns:sodipodi="http://sodipodi.sourceforge.net/DTD/sodipodi-0.dtd"
   xmlns="http://www.w3.org/2000/svg"
   xmlns:svg="http://www.w3.org/2000/svg"><sodipodi:namedview
     id="namedview1"
     pagecolor="#ffffff"
     bordercolor="#000000"
     borderopacity="0.25"
     inkscape:showpageshadow="2"
     inkscape:pageopacity="0.0"
     inkscape:pagecheckerboard="0"
     inkscape:deskcolor="#d1d1d1"
     inkscape:document-units="mm"
     inkscape:zoom="1.2711951"
     inkscape:cx="142.77903"
     inkscape:cy="266.67818"
     inkscape:window-width="1192"
     inkscape:window-height="929"
     inkscape:window-x="2049"
     inkscape:window-y="167"
     inkscape:window-maximized="0"
     inkscape:current-layer="layer1"
     showgrid="false" /><defs
     id="defs1"><rect
       x="66.866211"
       y="51.132984"
       width="80.239456"
       height="356.35757"
       id="rect34" /><rect
       x="24.386501"
       y="130.58578"
       width="115.63922"
       height="77.879471"
       id="rect32" /><rect
       x="31.466454"
       y="60.572922"
       width="3.1466453"
       height="18.09321"
       id="rect20" /><rect
       x="63.719566"
       y="1.5733227"
       width="66.866211"
       height="92.039375"
       id="rect19" /><rect
       x="-7.0799518"
       y="-6.2932906"
       width="168.34552"
       height="76.306152"
       id="rect13" /></defs><g
     inkscape:label="Layer 1"
     inkscape:groupmode="layer"
     id="layer1"><path
       id="rect2"
       style="fill:#e6e6e6;stroke:#cccccc;stroke-width:0.282298"
       d="M 0.19928598,0.19928591 H 30.396922 V 128.42968 H 0.19928598 Z" /><path
       id="rect50"
       style="display:inline;stroke-width:0.317922"
       d="M 1.1609105,108.04501 H 29.600736 v 11.00065 H 1.1609105 Z" /><path
       id="rect1"
       style="display:inline;stroke-width:0.317921"
       d="M 1.9179218,102.52055 H 28.843722 c 0.419384,0 0.757011,0.33763 0.757011,0.75702 v 12.81682 c 0,0.41939 -0.337627,0.75701 -0.757011,0.75701 H 1.9179218 c -0.4193845,0 -0.7570117,-0.33762 -0.7570117,-0.75701 v -12.81682 c 0,-0.41939 0.3376272,-0.75702 0.7570117,-0.75702 z" /><path
       id="path36"
       style="fill:none;stroke:#666666;stroke-width:0.3"
       d="m 19.764893,36.254521 a 5.6197114,5.6197114 0 0 1 -2.525907,-6.361869 5.6197114,5.6197114 0 0 1 5.493943,-4.082912 5.6197114,5.6197114 0 0 1 5.363018,4.253425 5.6197114,5.6197114 0 0 1 -2.724444,6.27941" /><path
       style="fill:#333333;stroke:#666666;stroke-width:0.376;stroke-dasharray:none"
       d="m 22.64468,25.809046 v 2.49765 z"
       id="path1" /><path
       style="fill:#666666;stroke:#666666;stroke-width:0.266;stroke-dasharray:none"
       d="M 16.95438,31.428759 H 8.6288814 Z"
       id="path5" /><path
       id="path6"
       style="fill:none;stroke:#666666;stroke-width:0.3"
       d="m 19.764893,36.254521 a 5.6197114,5.6197114 0 0 1 -2.525907,-6.361869 5.6197114,5.6197114 0 0 1 5.493943,-4.082912 5.6197114,5.6197114 0 0 1 5.363018,4.253425 5.6197114,5.6197114 0 0 1 -2.724444,6.27941" /><path
       style="fill:#333333;stroke:#666666;stroke-width:0.376;stroke-dasharray:none"
       d="m 22.64468,25.809046 v 2.49765 z"
       id="path7" /><path
       style="fill:#666666;stroke:#666666;stroke-width:0.266;stroke-dasharray:none"
       d="M 16.95438,31.428759 H 8.6288814 Z"
       id="path8" /><path
       id="path9"
       style="fill:none;stroke:#666666;stroke-width:0.3"
       d="m 19.764887,59.173777 a 5.6197114,5.6197114 0 0 1 -2.525907,-6.361869 5.6197114,5.6197114 0 0 1 5.493943,-4.082912 5.6197114,5.6197114 0 0 1 5.363018,4.253425 5.6197114,5.6197114 0 0 1 -2.724444,6.27941" /><path
       style="fill:#333333;stroke:#666666;stroke-width:0.376;stroke-dasharray:none"
       d="m 22.64468,48.728304 v 2.49765 z"
       id="path10" /><path
       style="fill:#666666;stroke:#666666;stroke-width:0.266;stroke-dasharray:none"
       d="M 16.95438,54.348017 H 8.6288814 Z"
       id="path11" /><path
       id="path12"
       style="fill:none;stroke:#666666;stroke-width:0.3"
       d="M 19.764887,81.260569 A 5.6197114,5.6197114 0 0 1 17.23898,74.8987 a 5.6197114,5.6197114 0 0 1 5.493943,-4.082912 5.6197114,5.6197114 0 0 1 5.363018,4.253425 5.6197114,5.6197114 0 0 1 -2.724444,6.27941" /><path
       style="fill:#333333;stroke:#666666;stroke-width:0.376;stroke-dasharray:none"
       d="m 22.64468,70.815092 v 2.49765 z"
       id="path13" /><path
       style="fill:#666666;stroke:#666666;stroke-width:0.266;stroke-dasharray:none"
       d="M 16.95438,76.434805 H 8.6288814 Z"
       id="path14" /><path
       style="font-size:2.11667px;font-family:'Devanagari Sangam MN';-inkscape-font-specification:'Devanagari Sangam MN, Normal';fill:none;stroke:#ffffff;stroke-width:0.2"
       d="m 20.458176,106.1689 q 0,0.1664 -0.04341,0.30593 -0.04237,0.13953 -0.125057,0.24081 -0.08268,0.10025 -0.203606,0.15607 -0.119889,0.0558 -0.274919,0.0558 -0.155029,0 -0.275952,-0.0558 -0.11989,-0.0558 -0.202572,-0.15607 -0.08165,-0.10128 -0.125058,-0.24081 -0.04237,-0.13953 -0.04237,-0.30593 0,-0.16639 0.04237,-0.30489 0.04341,-0.13952 0.125058,-0.23874 0.08268,-0.10025 0.202572,-0.15607 0.120923,-0.0558 0.275952,-0.0558 0.15503,0 0.274919,0.0558 0.120923,0.0558 0.203606,0.15607 0.08268,0.0992 0.125057,0.23874 0.04341,0.1385 0.04341,0.30489 z m -0.153996,0 q 0,-0.14572 -0.03927,-0.26045 -0.03824,-0.11575 -0.10542,-0.19533 -0.06615,-0.0806 -0.156063,-0.12196 -0.08992,-0.0424 -0.192237,-0.0424 -0.104386,0 -0.194304,0.0424 -0.08992,0.0413 -0.156063,0.12196 -0.06615,0.0796 -0.104386,0.19533 -0.03721,0.11473 -0.03721,0.26045 0,0.14573 0.03721,0.26149 0.03824,0.11575 0.104386,0.19637 0.06615,0.0796 0.156063,0.12195 0.08992,0.0424 0.194304,0.0424 0.10232,0 0.192237,-0.0424 0.08992,-0.0424 0.156063,-0.12195 0.06718,-0.0806 0.10542,-0.19637 0.03927,-0.11576 0.03927,-0.26149 z m 0.637688,-0.71933 v 0.97152 q 0,0.0878 0.03204,0.15813 0.03307,0.0692 0.08475,0.11782 0.05271,0.0486 0.117823,0.0744 0.06614,0.0258 0.133325,0.0258 0.07028,0 0.14056,-0.0238 0.07131,-0.0238 0.127124,-0.0703 0.05684,-0.0465 0.09198,-0.11576 0.03617,-0.0703 0.03617,-0.16226 v -0.97565 h 0.151929 v 0.96531 q 0,0.1261 -0.04858,0.22325 -0.04858,0.0961 -0.127124,0.16226 -0.07751,0.0651 -0.1757,0.0992 -0.09715,0.0341 -0.195338,0.0341 -0.09302,0 -0.186035,-0.0341 -0.09302,-0.0331 -0.168465,-0.0982 -0.07441,-0.0661 -0.120923,-0.1633 -0.04651,-0.0982 -0.04651,-0.22738 v -0.96118 z m 2.343013,0 v 0.13952 H 22.80739 v 1.30225 h -0.152962 v -1.30225 h -0.476457 v -0.13952 z m 0.317294,0 h 0.545704 q 0.10542,0 0.186035,0.0372 0.08062,0.0362 0.135393,0.0951 0.05478,0.0579 0.08268,0.13126 0.02894,0.0734 0.02894,0.14676 0,0.0785 -0.02894,0.15296 -0.02791,0.0744 -0.08372,0.13229 -0.05478,0.0579 -0.135392,0.093 -0.08062,0.0351 -0.185002,0.0351 h -0.392742 v 0.61805 h -0.152962 z m 0.152962,0.68833 h 0.392742 q 0.05581,0 0.106454,-0.0217 0.05064,-0.0217 0.08888,-0.0599 0.03927,-0.0382 0.06201,-0.0889 0.02274,-0.0507 0.02274,-0.10956 0,-0.0579 -0.02171,-0.10645 -0.02067,-0.0496 -0.05891,-0.0858 -0.03721,-0.0362 -0.08888,-0.0558 -0.05064,-0.0207 -0.110588,-0.0207 h -0.392742 z m 1.310517,-0.68833 v 0.97152 q 0,0.0878 0.03204,0.15813 0.03307,0.0692 0.08475,0.11782 0.05271,0.0486 0.117822,0.0744 0.06615,0.0258 0.133326,0.0258 0.07028,0 0.14056,-0.0238 0.07131,-0.0238 0.127124,-0.0703 0.05684,-0.0465 0.09198,-0.11576 0.03617,-0.0703 0.03617,-0.16226 v -0.97565 h 0.151929 v 0.96531 q 0,0.1261 -0.04858,0.22325 -0.04858,0.0961 -0.127125,0.16226 -0.07751,0.0651 -0.1757,0.0992 -0.09715,0.0341 -0.195337,0.0341 -0.09302,0 -0.186035,-0.0341 -0.09302,-0.0331 -0.168466,-0.0982 -0.07441,-0.0661 -0.120923,-0.1633 -0.04651,-0.0982 -0.04651,-0.22738 v -0.96118 z m 2.343013,0 v 0.13952 h -0.477491 v 1.30225 h -0.152963 v -1.30225 h -0.476457 v -0.13952 z"
       id="text21"
       inkscape:label="text21"
       aria-label="OUTPUT" /><path
       style="font-size:2.11667px;font-family:'Devanagari Sangam MN';-inkscape-font-specification:'Devanagari Sangam MN, Normal';fill:none;stroke:#ffffff;stroke-width:0.2"
       d="m 5.2956392,106.17096 q 0,0.14883 0.039274,0.26458 0.040308,0.11576 0.1085207,0.19534 0.068213,0.0796 0.1581301,0.12196 0.089917,0.0413 0.1901695,0.0413 0.058911,0 0.1157554,-0.0196 0.057878,-0.0207 0.1095542,-0.0558 0.05271,-0.0351 0.097152,-0.0837 0.044442,-0.0496 0.077515,-0.10646 0.033073,-0.0579 0.051677,-0.12195 0.019637,-0.0641 0.021704,-0.13023 H 5.817572 v -0.13539 h 0.5932463 v 0.75344 h -0.094051 l -0.045475,-0.25631 q -0.036174,0.0558 -0.089917,0.10852 -0.05271,0.0517 -0.1157553,0.093 -0.063045,0.0413 -0.1322919,0.0661 -0.069246,0.0248 -0.1374595,0.0248 -0.1508954,0 -0.2718185,-0.0579 -0.120923,-0.0589 -0.2056725,-0.1602 -0.08475,-0.10232 -0.1302248,-0.24081 -0.045475,-0.13953 -0.045475,-0.30076 0,-0.094 0.018603,-0.18603 0.019637,-0.093 0.056844,-0.17674 0.038241,-0.0837 0.093018,-0.15503 0.055811,-0.0723 0.1271242,-0.12402 0.071314,-0.0527 0.1581301,-0.0827 0.08785,-0.03 0.1891361,-0.03 0.1281577,0 0.2284101,0.0331 0.101286,0.0331 0.1767337,0.093 0.075448,0.06 0.1250572,0.14263 0.050643,0.0827 0.078548,0.1819 H 6.2320176 q -0.055811,-0.16123 -0.1653648,-0.23874 -0.1085207,-0.0775 -0.2811202,-0.0775 -0.1074872,0 -0.1974043,0.0496 -0.089917,0.0496 -0.1550295,0.13436 -0.065112,0.0847 -0.101286,0.19741 -0.036174,0.11265 -0.036174,0.23874 z m 2.1900505,-0.7183 0.5239999,1.44177 H 7.8505259 L 7.6841275,106.43554 H 7.0712441 l -0.1663983,0.45889 H 6.7467156 l 0.528134,-1.44177 z m -0.1074871,0.14262 -0.2645837,0.72451 h 0.5281339 z m 1.9761096,-0.14262 v 0.13952 H 8.8768213 v 1.30225 H 8.7238588 v -1.30225 H 8.2474013 v -0.13952 z m 1.2784768,0 v 0.13952 H 9.8245688 v 0.48783 h 0.7606782 v 0.13953 H 9.8245688 v 0.53537 h 0.8443942 v 0.13952 H 9.6716063 v -1.44177 z"
       id="text22"
       aria-label="GATE" /><path
       style="font-size:4.93889px;font-family:Sans;-inkscape-font-specification:'Sans, Normal';fill:#ffffff;stroke:#1a1a1a;stroke-width:0.2"
       d="M 6.7338161,11.899129 H 6.2804414 v -0.282153 q -0.1953369,0.168809 -0.4075549,0.26286 -0.2122179,0.09405 -0.4606093,0.09405 -0.4823135,0 -0.7668785,-0.371382 -0.2821533,-0.371381 -0.2821533,-1.029739 0,-0.342443 0.096463,-0.6101267 0.098874,-0.267684 0.2652725,-0.4557862 0.1639865,-0.1832791 0.3810276,-0.2797418 0.2194526,-0.096463 0.4533747,-0.096463 0.2122179,0 0.3762045,0.04582 0.1639866,0.043408 0.3448541,0.1374594 V 8.1467301 H 6.7338161 Z M 6.2804414,11.235948 V 9.6901332 Q 6.0971623,9.6081399 5.9524683,9.5767895 q -0.1446941,-0.03135 -0.3159154,-0.03135 -0.3810276,0 -0.5932455,0.2652724 -0.212218,0.2652724 -0.212218,0.7524094 0,0.479901 0.1639866,0.730705 0.1639866,0.248391 0.5257217,0.248391 0.1929254,0 0.3906739,-0.08441 0.1977485,-0.08682 0.3689698,-0.221864 z m 3.60047,-0.636654 H 7.8961915 q 0,0.248392 0.074759,0.434082 0.074758,0.183279 0.2049832,0.301446 0.1254015,0.115755 0.2966228,0.173633 0.1736328,0.05788 0.3810276,0.05788 0.2749187,0 0.5522489,-0.108521 0.2797419,-0.110932 0.3979087,-0.217041 h 0.024116 v 0.494371 q -0.2290989,0.09646 -0.467844,0.161575 -0.2387452,0.06511 -0.501606,0.06511 -0.6704158,0 -1.0466203,-0.361735 -0.3762045,-0.364147 -0.3762045,-1.032151 0,-0.6607697 0.3593235,-1.0490321 0.3617351,-0.3882623 0.9501576,-0.3882623 0.5450142,0 0.8392254,0.3183269 0.2966228,0.3183269 0.2966228,0.9043375 z M 9.4395946,10.252028 Q 9.437183,9.8951164 9.258727,9.6997795 9.0826826,9.5044425 8.7209475,9.5044425 q -0.3641467,0 -0.5811877,0.2146295 -0.2146295,0.2146295 -0.2435683,0.532956 z m 3.3834284,0.347266 h -1.98472 q 0,0.248392 0.07476,0.434082 0.07476,0.183279 0.204983,0.301446 0.125402,0.115755 0.296623,0.173633 0.173633,0.05788 0.381028,0.05788 0.274918,0 0.552249,-0.108521 0.279741,-0.110932 0.397908,-0.217041 h 0.02412 v 0.494371 q -0.229099,0.09646 -0.467844,0.161575 -0.238745,0.06511 -0.501606,0.06511 -0.670416,0 -1.04662,-0.361735 -0.376205,-0.364147 -0.376205,-1.032151 0,-0.6607697 0.359324,-1.0490321 0.361735,-0.3882623 0.950157,-0.3882623 0.545014,0 0.839226,0.3183269 0.296622,0.3183269 0.296622,0.9043375 z m -0.441316,-0.347266 q -0.0024,-0.3569116 -0.180868,-0.5522485 -0.176044,-0.195337 -0.53778,-0.195337 -0.364146,0 -0.581187,0.2146295 -0.21463,0.2146295 -0.243569,0.532956 z m 3.499184,0.267684 q 0,0.327974 -0.09405,0.600481 -0.09405,0.270095 -0.265272,0.458197 -0.159163,0.178456 -0.376204,0.277331 -0.21463,0.09646 -0.455787,0.09646 -0.209806,0 -0.381027,-0.04582 -0.16881,-0.04582 -0.344854,-0.142283 v 1.128614 H 13.51032 V 9.2054082 h 0.453375 v 0.2821533 q 0.180867,-0.1519287 0.405143,-0.2532145 0.226687,-0.1036974 0.482313,-0.1036974 0.487137,0 0.757232,0.3689698 0.272508,0.3665582 0.272508,1.0200926 z m -0.467844,0.01206 q 0,-0.487136 -0.166399,-0.7282931 -0.166398,-0.2411568 -0.511252,-0.2411568 -0.195337,0 -0.393085,0.084405 -0.197749,0.084405 -0.378616,0.2218642 v 1.5265218 q 0.192925,0.08682 0.330384,0.118167 0.139871,0.03135 0.315916,0.03135 0.378616,0 0.590834,-0.255627 0.212218,-0.255626 0.212218,-0.757232 z m 3.426837,1.367359 h -0.453375 v -1.533757 q 0,-0.185691 -0.0217,-0.347266 -0.0217,-0.1639862 -0.07958,-0.2556258 -0.06029,-0.1012858 -0.173633,-0.1495172 -0.113343,-0.050643 -0.294211,-0.050643 -0.185691,0 -0.388262,0.09164 -0.202572,0.091639 -0.388263,0.233922 V 11.899129 H 16.58748 V 9.2054082 h 0.453374 v 0.2990343 q 0.212218,-0.1760444 0.438906,-0.2749187 0.226687,-0.098874 0.465432,-0.098874 0.436494,0 0.665593,0.2628608 0.229099,0.2628609 0.229099,0.7572326 z m 3.1688,-1.345655 q 0,0.658358 -0.33762,1.039386 -0.337619,0.381028 -0.904337,0.381028 -0.571542,0 -0.909161,-0.381028 -0.335208,-0.381028 -0.335208,-1.039386 0,-0.6583576 0.335208,-1.0393852 0.337619,-0.3834392 0.909161,-0.3834392 0.566718,0 0.904337,0.3834392 0.33762,0.3810276 0.33762,1.0393852 z m -0.467844,0 q 0,-0.52331 -0.204983,-0.7765244 -0.204984,-0.2556261 -0.56913,-0.2556261 -0.36897,0 -0.573953,0.2556261 -0.202572,0.2532144 -0.202572,0.7765244 0,0.506429 0.204983,0.76929 0.204983,0.26045 0.571542,0.26045 0.361735,0 0.566718,-0.258038 0.207395,-0.260449 0.207395,-0.771702 z m 2.568319,1.321539 q -0.127813,0.03376 -0.279741,0.05547 -0.149518,0.0217 -0.267684,0.0217 -0.412378,0 -0.627008,-0.221864 -0.214629,-0.221864 -0.214629,-0.711412 V 9.5864358 H 22.413828 V 9.2054082 h 0.306269 V 8.431295 h 0.453374 v 0.7741132 h 0.935688 v 0.3810276 h -0.935688 v 1.2274882 q 0,0.212218 0.0096,0.332796 0.0096,0.118167 0.06752,0.221864 0.05305,0.09646 0.144694,0.142283 0.09405,0.04341 0.284565,0.04341 0.110933,0 0.231511,-0.03135 0.120578,-0.03376 0.173633,-0.05547 h 0.02411 z M 26.9114,10.599294 h -1.98472 q 0,0.248392 0.07476,0.434082 0.07476,0.183279 0.204983,0.301446 0.125402,0.115755 0.296623,0.173633 0.173633,0.05788 0.381028,0.05788 0.274918,0 0.552249,-0.108521 0.279741,-0.110932 0.397908,-0.217041 h 0.02412 v 0.494371 q -0.229099,0.09646 -0.467844,0.161575 -0.238745,0.06511 -0.501606,0.06511 -0.670416,0 -1.04662,-0.361735 -0.376205,-0.364147 -0.376205,-1.032151 0,-0.6607697 0.359324,-1.0490321 0.361735,-0.3882623 0.950157,-0.3882623 0.545014,0 0.839226,0.3183269 0.296622,0.3183269 0.296622,0.9043375 z m -0.441316,-0.347266 q -0.0024,-0.3569116 -0.180868,-0.5522485 -0.176044,-0.195337 -0.53778,-0.195337 -0.364146,0 -0.581187,0.2146295 -0.21463,0.2146295 -0.243569,0.532956 z"
       id="text31"
       aria-label="deepnote" /><path
       style="font-size:2.11667px;font-family:'Devanagari Sangam MN';-inkscape-font-specification:'Devanagari Sangam MN, Normal';fill:none;stroke:#1a1a1a;stroke-width:0.2"
       d="m 19.694398,45.562444 v 0.139527 h -0.477491 v 1.302248 h -0.152962 v -1.302248 h -0.476458 v -0.139527 z m 0.979787,0 0.524,1.441775 h -0.159164 l -0.166398,-0.458887 h -0.612884 l -0.166398,0.458887 h -0.15813 l 0.528134,-1.441775 z m -0.107487,0.142628 -0.264584,0.724504 h 0.528134 z m 1.988512,0.267684 q 0,0.05374 -0.01344,0.10542 -0.0124,0.05168 -0.03824,0.09819 -0.02584,0.04548 -0.06408,0.08372 -0.03721,0.03824 -0.08785,0.06615 0.05684,0.01447 0.09198,0.04444 0.03617,0.02894 0.05581,0.06821 0.02067,0.03824 0.02791,0.08475 0.0083,0.04547 0.0083,0.09302 v 0.217042 q 0,0.04651 0.0124,0.09095 0.01344,0.04341 0.03307,0.07958 H 22.41465 q -0.01034,-0.01654 -0.01654,-0.03721 -0.0052,-0.0217 -0.0083,-0.04444 -0.0031,-0.02274 -0.0041,-0.04341 -0.001,-0.0217 -0.001,-0.03721 v -0.229444 q 0,-0.04134 -0.01447,-0.08165 -0.01344,-0.04134 -0.04548,-0.07338 -0.03101,-0.03204 -0.08165,-0.05168 -0.05064,-0.01964 -0.12299,-0.01964 h -0.43615 v 0.618051 h -0.152963 v -1.441775 h 0.589113 q 0.10542,0 0.186035,0.03721 0.08165,0.03617 0.136426,0.09508 0.05581,0.05788 0.08372,0.131259 0.02894,0.07338 0.02894,0.146761 z m -0.871266,0.27802 h 0.43615 q 0.05684,0 0.107487,-0.02171 0.05064,-0.0217 0.08888,-0.05994 0.03927,-0.03824 0.06201,-0.08888 0.02274,-0.05064 0.02274,-0.109554 0,-0.05788 -0.0217,-0.106454 -0.02067,-0.04961 -0.05891,-0.08578 -0.03721,-0.03617 -0.08888,-0.05581 -0.05168,-0.02067 -0.111621,-0.02067 h -0.43615 z m 1.347723,0.02997 q 0,0.148828 0.03927,0.264584 0.04031,0.115755 0.10852,0.195337 0.06821,0.07958 0.15813,0.121956 0.08992,0.04134 0.19017,0.04134 0.05891,0 0.115755,-0.01964 0.05788,-0.02067 0.109555,-0.05581 0.05271,-0.03514 0.09715,-0.08372 0.04444,-0.04961 0.07752,-0.106454 0.03307,-0.05788 0.05168,-0.121956 0.01964,-0.06408 0.0217,-0.130225 H 23.5536 v -0.135392 h 0.593247 v 0.753443 h -0.09405 l -0.04547,-0.256315 q -0.03617,0.05581 -0.08992,0.10852 -0.05271,0.05168 -0.115756,0.09302 -0.06304,0.04134 -0.132291,0.06615 -0.06925,0.02481 -0.13746,0.02481 -0.150895,0 -0.271818,-0.05788 -0.120923,-0.05891 -0.205673,-0.160197 -0.08475,-0.10232 -0.130225,-0.240813 -0.04547,-0.139526 -0.04547,-0.300757 0,-0.09405 0.0186,-0.186036 0.01964,-0.09302 0.05684,-0.176733 0.03824,-0.08372 0.09302,-0.15503 0.05581,-0.07235 0.127125,-0.124023 0.07131,-0.05271 0.15813,-0.08268 0.08785,-0.02997 0.189136,-0.02997 0.128158,0 0.22841,0.03307 0.101286,0.03307 0.176734,0.09302 0.07545,0.05994 0.125057,0.142627 0.05064,0.08268 0.07855,0.181901 h -0.162264 q -0.05581,-0.161231 -0.165365,-0.238745 -0.108521,-0.07752 -0.28112,-0.07752 -0.107487,0 -0.197405,0.04961 -0.08992,0.04961 -0.155029,0.134359 -0.06511,0.08475 -0.101286,0.197404 -0.03617,0.112655 -0.03617,0.238746 z m 2.488741,-0.718304 v 0.139527 h -0.808221 v 0.487826 h 0.760679 v 0.139527 h -0.760679 v 0.535368 h 0.844394 v 0.139527 h -0.997356 v -1.441775 z m 1.407668,0 v 0.139527 h -0.477491 v 1.302248 h -0.152962 v -1.302248 h -0.476458 v -0.139527 z"
       id="text33"
       aria-label="TARGET" /><path
       style="font-size:2.11667px;font-family:'Devanagari Sangam MN';-inkscape-font-specification:'Devanagari Sangam MN, Normal';fill:none;stroke:#1a1a1a;stroke-width:0.2"
       d="m 21.143927,67.964303 q 0,0.05374 -0.01344,0.10542 -0.0124,0.05168 -0.03824,0.09819 -0.02584,0.04547 -0.06408,0.08372 -0.03721,0.03824 -0.08785,0.06615 0.05684,0.01447 0.09198,0.04444 0.03617,0.02894 0.05581,0.06821 0.02067,0.03824 0.02791,0.08475 0.0083,0.04547 0.0083,0.09302 v 0.217041 q 0,0.04651 0.0124,0.09095 0.01344,0.04341 0.03307,0.07958 h -0.166398 q -0.01034,-0.01654 -0.01654,-0.03721 -0.0052,-0.0217 -0.0083,-0.04444 -0.0031,-0.02274 -0.0041,-0.04341 -0.001,-0.02171 -0.001,-0.03721 v -0.229443 q 0,-0.04134 -0.01447,-0.08165 -0.01344,-0.04134 -0.04548,-0.07338 -0.03101,-0.03204 -0.08165,-0.05168 -0.05064,-0.01964 -0.122991,-0.01964 h -0.436149 v 0.618051 h -0.152963 v -1.441775 h 0.589112 q 0.105421,0 0.186036,0.03721 0.08165,0.03617 0.136426,0.09508 0.05581,0.05788 0.08372,0.131258 0.02894,0.07338 0.02894,0.146762 z m -0.871266,0.278019 h 0.436149 q 0.05684,0 0.107488,-0.0217 0.05064,-0.0217 0.08888,-0.05994 0.03927,-0.03824 0.06201,-0.08888 0.02274,-0.05064 0.02274,-0.109555 0,-0.05788 -0.0217,-0.106453 -0.02067,-0.04961 -0.05891,-0.08578 -0.03721,-0.03617 -0.08888,-0.05581 -0.05168,-0.02067 -0.111622,-0.02067 h -0.436149 z m 1.939936,-0.688331 0.524,1.441775 h -0.159164 l -0.166398,-0.458888 h -0.612884 l -0.166398,0.458888 h -0.15813 l 0.528134,-1.441775 z m -0.107487,0.142627 -0.264584,0.724505 h 0.528134 z m 1.976109,-0.142627 v 0.139527 h -0.47749 v 1.302248 h -0.152963 v -1.302248 h -0.476457 v -0.139527 z m 1.278478,0 v 0.139527 h -0.808221 v 0.487826 h 0.760678 v 0.139526 h -0.760678 v 0.535369 h 0.844394 v 0.139527 h -0.997356 v -1.441775 z"
       id="text25"
       aria-label="RATE" /><path
       style="font-size:2.11667px;font-family:'Devanagari Sangam MN';-inkscape-font-specification:'Devanagari Sangam MN, Normal';fill:none;stroke:#1a1a1a;stroke-width:0.2"
       d="m 18.678439,22.79742 h 0.534335 q 0.09509,0 0.177767,0.02584 0.08372,0.02584 0.151929,0.07338 0.06925,0.04651 0.12299,0.112655 0.05478,0.06615 0.09198,0.145728 0.03721,0.07958 0.05684,0.171566 0.01964,0.09095 0.01964,0.189136 0,0.153996 -0.04548,0.286288 -0.04547,0.131258 -0.128157,0.229443 -0.08165,0.09715 -0.196371,0.152963 -0.113688,0.05478 -0.251148,0.05478 h -0.534335 z m 0.152962,1.302248 h 0.320395 q 0.113688,0 0.21084,-0.03927 0.09715,-0.03927 0.167432,-0.113688 0.07131,-0.07441 0.110588,-0.181902 0.04031,-0.10852 0.04031,-0.24598 0,-0.149862 -0.04031,-0.259416 -0.04031,-0.110588 -0.111622,-0.181901 -0.07131,-0.07131 -0.168465,-0.10542 -0.09612,-0.03514 -0.208773,-0.03514 h -0.320395 z m 2.294437,-1.302248 v 0.139527 h -0.80822 v 0.487826 h 0.760678 V 23.5643 h -0.760678 v 0.535368 h 0.844394 v 0.139527 H 20.164655 V 22.79742 Z m 1.407669,0 v 0.139527 h -0.477491 v 1.302248 H 21.903053 V 22.936947 H 21.426596 V 22.79742 Z m 0.470256,0 v 0.971519 q 0,0.08785 0.03204,0.15813 0.03307,0.06925 0.08475,0.117822 0.05271,0.04858 0.117822,0.07441 0.06615,0.02584 0.133325,0.02584 0.07028,0 0.140561,-0.02377 0.07131,-0.02377 0.127124,-0.07028 0.05684,-0.04651 0.09198,-0.115755 0.03617,-0.07028 0.03617,-0.162264 V 22.79742 h 0.151929 v 0.965317 q 0,0.126091 -0.04858,0.223243 -0.04858,0.09612 -0.127125,0.162264 -0.07751,0.06511 -0.1757,0.09922 -0.09715,0.03411 -0.195337,0.03411 -0.09302,0 -0.186035,-0.03411 -0.09302,-0.03307 -0.168466,-0.09819 -0.07441,-0.06615 -0.120923,-0.163298 -0.04651,-0.09819 -0.04651,-0.227377 V 22.79742 Z m 1.535826,0 0.733806,1.246438 V 22.79742 h 0.152963 v 1.441775 h -0.204639 l -0.733807,-1.245404 v 1.245404 H 24.33495 V 22.79742 Z m 2.261364,0 v 0.139527 h -0.80822 v 0.487826 h 0.760678 V 23.5643 h -0.760678 v 0.535368 h 0.844394 v 0.139527 H 25.83977 V 22.79742 Z"
       id="text15"
       aria-label="DETUNE" /><path
       style="font-size:2.11667px;font-family:'Devanagari Sangam MN';-inkscape-font-specification:'Devanagari Sangam MN, Normal';fill:none;stroke:#1a1a1a;stroke-width:0.2"
       d="m 6.2842109,87.398208 q 0,0.165365 0.042375,0.287321 0.043408,0.120923 0.1126548,0.201539 0.07028,0.07958 0.1581301,0.118856 0.088884,0.03824 0.1798343,0.03824 0.094051,0 0.169499,-0.03411 0.076481,-0.03411 0.1322918,-0.08992 0.056844,-0.05684 0.093018,-0.128158 0.037207,-0.07235 0.05271,-0.147795 h 0.156063 q -0.021704,0.111621 -0.071313,0.209807 -0.049609,0.09819 -0.1260907,0.170532 -0.075448,0.07235 -0.1777672,0.114722 -0.101286,0.04134 -0.2284102,0.04134 -0.1477948,0 -0.2676843,-0.05271 -0.118856,-0.05374 -0.2036055,-0.153996 -0.083716,-0.101286 -0.1291913,-0.24598 -0.045475,-0.145728 -0.045475,-0.329696 0,-0.09508 0.018604,-0.186035 0.019637,-0.09199 0.056844,-0.1726 0.038241,-0.08165 0.093018,-0.149862 0.055811,-0.06925 0.1271243,-0.117822 0.071313,-0.04961 0.1581301,-0.07752 0.08785,-0.0279 0.189136,-0.0279 0.1281578,0 0.2294437,0.03411 0.101286,0.03411 0.1757002,0.09508 0.075448,0.05994 0.1260906,0.143661 0.050643,0.08268 0.078548,0.181901 H 7.2216228 q -0.056844,-0.162264 -0.1663984,-0.240813 -0.1085206,-0.07958 -0.2811202,-0.07958 -0.1074871,0 -0.1974043,0.04754 -0.089917,0.04754 -0.1550295,0.129191 -0.065112,0.08165 -0.101286,0.19017 -0.036174,0.10852 -0.036174,0.230477 z m 1.4304059,-0.695566 h 0.5457039 q 0.1054201,0 0.1860355,0.03721 0.080615,0.03617 0.1353924,0.09508 0.054777,0.05788 0.082682,0.131258 0.028939,0.07338 0.028939,0.146762 0,0.07855 -0.028939,0.152962 -0.027905,0.07441 -0.083716,0.132292 -0.054777,0.05788 -0.1353925,0.09302 -0.080615,0.03514 -0.1850019,0.03514 H 7.8675792 v 0.618051 H 7.7146168 Z m 0.1529624,0.688331 h 0.3927415 q 0.055811,0 0.1064536,-0.0217 0.050643,-0.0217 0.088884,-0.05994 0.039274,-0.03824 0.062012,-0.08888 0.022738,-0.05064 0.022738,-0.109554 0,-0.05788 -0.021704,-0.106454 -0.020671,-0.04961 -0.058911,-0.08578 -0.037207,-0.03617 -0.088884,-0.05581 -0.050643,-0.02067 -0.1105877,-0.02067 H 7.8675792 Z m 1.6598496,0.753444 V 86.98893 q -0.050643,0.07752 -0.1043865,0.129191 -0.05271,0.05064 -0.1126548,0.08165 -0.059945,0.03101 -0.1281578,0.04444 -0.068213,0.0124 -0.1488283,0.0124 v -0.146761 q 0.082682,0 0.1508954,-0.0186 0.068213,-0.01964 0.1219565,-0.05064 0.053744,-0.03101 0.094051,-0.07028 0.040308,-0.03927 0.067179,-0.07958 0.026872,-0.04134 0.041341,-0.07958 0.015503,-0.03824 0.018603,-0.06821 h 0.1529625 v 1.401467 z"
       id="text28"
       aria-label="CP1" /><path
       d="m 12.834683,120.0544 h 0.545015 v 4.07314 h -0.545015 v -0.24598 q -0.320739,0.3135 -0.725883,0.3135 -0.482315,0 -0.800642,-0.35208 -0.315916,-0.35933 -0.315916,-0.89711 0,-0.52572 0.315916,-0.87781 0.313504,-0.3545 0.788584,-0.3545 0.412379,0 0.737941,0.33762 z m -1.28778,2.89147 q 0,0.33762 0.180868,0.54984 0.185691,0.21463 0.467845,0.21463 0.301447,0 0.487138,-0.2074 0.185691,-0.21463 0.185691,-0.54501 0,-0.33039 -0.185691,-0.54502 -0.185691,-0.2098 -0.482315,-0.2098 -0.279742,0 -0.467845,0.21221 -0.185691,0.21463 -0.185691,0.53055 z m 2.517682,-1.1672 h 0.542604 v 0.21704 q 0.156752,-0.16399 0.267684,-0.22186 0.118167,-0.0603 0.296623,-0.0603 0.39791,0 0.629421,0.34726 0.255626,-0.34726 0.692121,-0.34726 0.793407,0 0.793407,0.96221 v 1.45177 H 16.74143 v -1.30466 q 0,-0.33762 -0.08199,-0.47749 -0.08441,-0.14228 -0.277331,-0.14228 -0.224277,0 -0.327974,0.16881 -0.101286,0.16881 -0.101286,0.5426 v 1.21302 h -0.545015 v -1.29743 q 0,-0.627 -0.361736,-0.627 -0.2291,0 -0.335209,0.17122 -0.103697,0.17122 -0.103697,0.54019 v 1.21302 h -0.542604 z m 4.449351,0 v 2.34887 h -0.542604 v -2.34887 z m -0.624598,-0.97669 q 0,-0.14228 0.103698,-0.24598 0.103698,-0.1037 0.248392,-0.1037 0.147106,0 0.250803,0.1037 0.103698,0.10129 0.103698,0.24839 0,0.14711 -0.103698,0.25081 -0.101286,0.1037 -0.248391,0.1037 -0.147106,0 -0.250804,-0.1037 -0.103698,-0.1037 -0.103698,-0.25322 z"
       id="text2"
       style="font-size:4.9389px;font-family:Futura;-inkscape-font-specification:'Futura, Normal';fill:#918a6f;stroke:#918a6f;stroke-width:0.3"
       aria-label="dmi" /><path
       style="font-size:2.11667px;font-family:'Devanagari Sangam MN';-inkscape-font-specification:'Devanagari Sangam MN, Normal';fill:none;stroke:#1a1a1a;stroke-width:0.2"
       d="m 20.937289,87.398208 q 0,0.165365 0.04237,0.287321 0.04341,0.120923 0.112654,0.201539 0.07028,0.07958 0.158131,0.118856 0.08888,0.03824 0.179834,0.03824 0.09405,0 0.169499,-0.03411 0.07648,-0.03411 0.132292,-0.08992 0.05684,-0.05684 0.09302,-0.128158 0.03721,-0.07235 0.05271,-0.147795 h 0.156064 q -0.0217,0.111621 -0.07131,0.209807 -0.04961,0.09819 -0.126091,0.170532 -0.07545,0.07235 -0.177767,0.114722 -0.101286,0.04134 -0.22841,0.04134 -0.147795,0 -0.267684,-0.05271 -0.118856,-0.05374 -0.203606,-0.153996 -0.08372,-0.101286 -0.129191,-0.24598 -0.04548,-0.145728 -0.04548,-0.329696 0,-0.09508 0.0186,-0.186035 0.01964,-0.09199 0.05684,-0.1726 0.03824,-0.08165 0.09302,-0.149862 0.05581,-0.06925 0.127124,-0.117822 0.07131,-0.04961 0.15813,-0.07752 0.08785,-0.0279 0.189136,-0.0279 0.128158,0 0.229444,0.03411 0.101286,0.03411 0.1757,0.09508 0.07545,0.05994 0.126091,0.143661 0.05064,0.08268 0.07855,0.181901 h -0.162264 q -0.05684,-0.162264 -0.166398,-0.240813 -0.108521,-0.07958 -0.281121,-0.07958 -0.107487,0 -0.197404,0.04754 -0.08992,0.04754 -0.15503,0.129191 -0.06511,0.08165 -0.101285,0.19017 -0.03617,0.10852 -0.03617,0.230477 z m 1.430406,-0.695566 h 0.545704 q 0.10542,0 0.186035,0.03721 0.08062,0.03617 0.135393,0.09508 0.05478,0.05788 0.08268,0.131258 0.02894,0.07338 0.02894,0.146762 0,0.07855 -0.02894,0.152962 -0.02791,0.07441 -0.08372,0.132292 -0.05478,0.05788 -0.135392,0.09302 -0.08062,0.03514 -0.185002,0.03514 h -0.392742 v 0.618051 h -0.152962 z m 0.152962,0.688331 h 0.392742 q 0.05581,0 0.106453,-0.0217 0.05064,-0.0217 0.08888,-0.05994 0.03927,-0.03824 0.06201,-0.08888 0.02274,-0.05064 0.02274,-0.109554 0,-0.05788 -0.0217,-0.106454 -0.02067,-0.04961 -0.05891,-0.08578 -0.03721,-0.03617 -0.08888,-0.05581 -0.05064,-0.02067 -0.110588,-0.02067 h -0.392742 z m 1.066604,-0.237712 q 0.01033,-0.09715 0.04857,-0.1757 0.03927,-0.07958 0.101286,-0.136426 0.06305,-0.05684 0.147795,-0.08785 0.08475,-0.03101 0.188103,-0.03101 0.106453,0 0.187069,0.03411 0.08165,0.03307 0.135392,0.08888 0.05478,0.05581 0.08165,0.128158 0.02791,0.07131 0.02791,0.146761 0,0.08682 -0.03204,0.15503 -0.03101,0.06718 -0.08372,0.125057 -0.05271,0.05684 -0.120923,0.106454 -0.06718,0.04961 -0.139527,0.09922 -0.06511,0.04444 -0.124023,0.08785 -0.05891,0.04237 -0.107487,0.08888 -0.04858,0.04651 -0.08578,0.09922 -0.03721,0.05168 -0.05788,0.114722 h 0.751376 v 0.147795 H 23.590361 V 88.00489 q 0.02274,-0.08475 0.07028,-0.156063 0.04858,-0.07131 0.110588,-0.132292 0.06201,-0.06098 0.131258,-0.112654 0.07028,-0.05271 0.136426,-0.09922 0.05994,-0.04134 0.115756,-0.08268 0.05684,-0.04237 0.100252,-0.08682 0.04341,-0.04444 0.06925,-0.09095 0.02687,-0.04754 0.02687,-0.09922 0,-0.07338 -0.0217,-0.130225 -0.0217,-0.05684 -0.05994,-0.09508 -0.03721,-0.03824 -0.08785,-0.05788 -0.05064,-0.01964 -0.10852,-0.01964 -0.07028,0 -0.128158,0.0217 -0.05788,0.0217 -0.100252,0.06305 -0.04237,0.04031 -0.06718,0.09819 -0.02481,0.05684 -0.02894,0.128157 z"
       id="text14"
       aria-label="CP2" /><path
       style="fill:#8080ff;stroke:#8080ff;stroke-width:2.066;stroke-dasharray:none"
       d="M 19.460853,15.202859 H 11.135354 Z"
       id="path17" /></g><g
     inkscape:groupmode="layer"
     id="layer2"
     inkscape:label="components"
     style="display:none"><ellipse
       style="display:inline;fill:none;stroke:#0000ff;stroke-width:0.330606;stroke-dasharray:none;stroke-opacity:1"
       id="ellipse1"
       cx="23.439186"
       cy="112.64246"
       rx="1.1899413"
       ry="1.189941"
       inkscape:label="output" /><ellipse
       style="display:inline;fill:none;stroke:#00ff00;stroke-width:0.330606;stroke-dasharray:none;stroke-opacity:1"
       id="ellipse8"
       cx="6.3331103"
       cy="76.072433"
       rx="1.1899413"
       ry="1.1899412"
       inkscape:label="root_cv" /><ellipse
       style="display:inline;fill:none;stroke:#0000ff;stroke-width:0.330606;stroke-dasharray:none;stroke-opacity:1"
       id="ellipse51"
       cx="7.7759333"
       cy="112.85062"
       rx="1.1899413"
       ry="1.189941"
       inkscape:label="gate" /><ellipse
       style="display:inline;fill:none;stroke:#00ff00;stroke-width:0.330606;stroke-dasharray:none;stroke-opacity:1"
       id="ellipse52"
       cx="6.3331103"
       cy="53.985645"
       rx="1.1899413"
       ry="1.1899412"
       inkscape:label="target_cv" /><ellipse
       style="display:inline;fill:none;stroke:#00ff00;stroke-width:0.330606;stroke-dasharray:none;stroke-opacity:1"
       id="ellipse53"
       cx="6.3183198"
       cy="31.428759"
       rx="1.1899413"
       ry="1.1899412"
       inkscape:label="detune_cv" /><ellipse
       style="display:inline;fill:none;stroke:#ff0000;stroke-width:0.330606;stroke-dasharray:none;stroke-opacity:1"
       id="ellipse54"
       cx="22.64468"
       cy="31.428759"
       rx="1.1899413"
       ry="1.1899412"
       inkscape:label="detune" /><ellipse
       style="display:inline;fill:none;stroke:#ff0000;stroke-width:0.330606;stroke-dasharray:none;stroke-opacity:1"
       id="ellipse55"
       cx="22.64468"
       cy="53.985645"
       rx="1.1899413"
       ry="1.1899412"
       inkscape:label="target" /><ellipse
       style="display:inline;fill:none;stroke:#ff0000;stroke-width:0.330606;stroke-dasharray:none;stroke-opacity:1"
       id="ellipse56"
       cx="22.64468"
       cy="76.072433"
       rx="1.1899413"
       ry="1.1899412"
       inkscape:label="rate" /><ellipse
       style="display:inline;fill:none;stroke:#ff0000;stroke-width:0.330606;stroke-dasharray:none;stroke-opacity:1"
       id="ellipse57"
       cx="22.757786"
       cy="91.890884"
       rx="1.1899413"
       ry="1.1899412"
       inkscape:label="cp2" /><ellipse
       style="display:inline;fill:none;stroke:#ff0000;stroke-width:0.330606;stroke-dasharray:none;stroke-opacity:1"
       id="ellipse58"
       cx="7.9058199"
       cy="91.890884"
       rx="1.1899413"
       ry="1.1899412"
       inkscape:label="cp1" /></g></svg>
