<?xml version="1.0" encoding="UTF-8" standalone="no"?>
<!-- Created with Inkscape (http://www.inkscape.org/) -->

<svg
   width="40.639999mm"
   height="128.5mm"
   viewBox="0 0 40.639999 128.5"
   version="1.1"
   id="svg1"
   inkscape:version="1.4 (e7c3feb1, 2024-10-09)"
   sodipodi:docname="deepnote-rack.svg"
   xmlns:inkscape="http://www.inkscape.org/namespaces/inkscape"
   xmlns:sodipodi="http://sodipodi.sourceforge.net/DTD/sodipodi-0.dtd"
   xmlns="http://www.w3.org/2000/svg"
   xmlns:svg="http://www.w3.org/2000/svg">
  <sodipodi:namedview
     id="namedview1"
     pagecolor="#ffffff"
     bordercolor="#000000"
     borderopacity="0.25"
     inkscape:showpageshadow="2"
     inkscape:pageopacity="0.0"
     inkscape:pagecheckerboard="0"
     inkscape:deskcolor="#d1d1d1"
     inkscape:document-units="mm"
     showgrid="true"
     inkscape:zoom="0.89887065"
     inkscape:cx="86.775556"
     inkscape:cy="273.1205"
     inkscape:window-width="1192"
     inkscape:window-height="730"
     inkscape:window-x="2214"
     inkscape:window-y="101"
     inkscape:window-maximized="0"
     inkscape:current-layer="layer1">
    <inkscape:grid
       id="grid8"
       units="mm"
       originx="0"
       originy="0"
       spacingx="0.99999994"
       spacingy="1"
       empcolor="#0099e5"
       empopacity="0.30196078"
       color="#0099e5"
       opacity="0.14901961"
       empspacing="5"
       enabled="true"
       visible="true" />
  </sodipodi:namedview>
  <defs
     id="defs1" />
  <g
     inkscape:label="Layer 1"
     inkscape:groupmode="layer"
     id="layer1">
    <rect
       style="display:inline;fill:#e6e6e6;stroke:#0000ff;stroke-width:0.250711"
       id="rect2"
       width="40.38929"
       height="128.2493"
       x="0.41292486"
       y="0.28720683"
       ry="0" />
    <path
       d="m 8.1046772,7.700528 q 0.2144887,-0.028222 0.4459107,-0.033867 0.2370665,-0.011289 0.4007553,-0.011289 0.513644,0 0.8579549,0.1467554 0.3499549,0.1467555 0.5587999,0.4120442 0.214488,0.2596442 0.304799,0.6265328 0.09596,0.3668886 0.09596,0.807155 0,0.4007551 -0.08467,0.7732881 -0.08467,0.366889 -0.293511,0.654755 -0.208844,0.282222 -0.5644436,0.4572 -0.3499553,0.169333 -0.8805327,0.169333 -0.073378,0 -0.1919109,-0.0056 -0.1185333,0 -0.2427109,-0.01129 -0.1241777,-0.0056 -0.2370665,-0.01129 -0.1128888,-0.0056 -0.1693332,-0.01693 z m 0.8692437,0.3725331 q -0.079022,0 -0.2031998,0.00564 -0.1185332,0.00564 -0.1975554,0.022578 V 11.26217 q 0.028222,0.0056 0.079022,0.01129 0.056444,0 0.1128888,0.0056 0.056444,0 0.1072443,0.0056 0.056444,0 0.090311,0 0.4120441,0 0.6660439,-0.135467 0.2596443,-0.135467 0.400755,-0.361244 0.141111,-0.231422 0.191911,-0.524933 0.0508,-0.2991555 0.0508,-0.6152441 0,-0.2765776 -0.04516,-0.5531552 Q 10.181831,8.8124827 10.04072,8.5867051 9.9052536,8.3609275 9.6456093,8.2198165 9.3916095,8.0730611 8.9739209,8.0730611 Z M 11.643743,7.700528 h 2.319865 v 0.4176886 h -1.851376 v 1.2925768 h 1.710265 v 0.4176885 h -1.710265 v 1.4054661 h 1.879598 v 0.417688 h -2.348087 z m 3.386667,0 h 2.319865 v 0.4176886 h -1.851377 v 1.2925768 h 1.710266 v 0.4176885 h -1.710266 v 1.4054661 h 1.879599 v 0.417688 H 15.03041 Z m 3.347155,0.039511 q 0.214489,-0.0508 0.462844,-0.067733 0.248355,-0.016933 0.491066,-0.016933 0.259644,0 0.524933,0.0508 0.270933,0.0508 0.491066,0.1862666 0.220134,0.1354665 0.3556,0.372533 0.141111,0.2370665 0.141111,0.6039551 0,0.3612442 -0.129822,0.6095996 -0.129822,0.2483553 -0.344311,0.4063996 -0.214488,0.1523997 -0.491066,0.2201337 -0.276578,0.06773 -0.570089,0.06773 -0.02822,0 -0.09596,0 -0.06209,0 -0.135467,0 -0.06773,-0.0056 -0.135466,-0.01129 -0.06773,-0.0056 -0.09596,-0.01129 v 1.501421 h -0.468488 z m 0.965199,0.3217331 q -0.146755,0 -0.282222,0.00564 -0.135466,0.00564 -0.214489,0.028222 v 1.6368877 q 0.02822,0.011289 0.09031,0.016933 0.06209,0 0.129823,0.00564 0.06773,0 0.129822,0 0.06209,0 0.09031,0 0.191911,0 0.378177,-0.033867 0.191911,-0.039511 0.344311,-0.1354666 0.1524,-0.095955 0.242711,-0.2709331 0.09596,-0.1749777 0.09596,-0.4459108 0,-0.231422 -0.09031,-0.3838219 Q 20.172497,8.3270609 20.025741,8.2367498 19.88463,8.1407943 19.704008,8.1012833 19.523386,8.0617722 19.342764,8.0617722 Z m 2.963333,1.1175991 -0.304799,-0.5700884 h -0.02258 l 0.05644,0.5700884 V 11.651636 H 21.594898 V 7.700528 h 0.3048 l 1.591732,2.460976 0.293511,0.541866 h 0.02822 l -0.06209,-0.541866 V 7.700528 h 0.440266 v 3.951108 h -0.304799 z m 2.551289,0.4967108 q 0,-0.9821326 0.34431,-1.51271 0.349956,-0.5305774 1.072444,-0.5305774 0.395111,0 0.666044,0.1467555 0.276578,0.1467554 0.445911,0.4176885 0.169333,0.2652887 0.242711,0.6434662 0.07338,0.3725331 0.07338,0.8353772 0,0.9821329 -0.349955,1.5127099 -0.344311,0.530577 -1.078088,0.530577 -0.389466,0 -0.660399,-0.146755 -0.270934,-0.146755 -0.440267,-0.412044 -0.169333,-0.270933 -0.242711,-0.643466 -0.07338,-0.378178 -0.07338,-0.8410219 z m 0.49671,0 q 0,0.3273779 0.03951,0.6208879 0.04516,0.293511 0.1524,0.519289 0.107245,0.220133 0.282222,0.3556 0.174978,0.129822 0.445911,0.129822 0.485422,0 0.705555,-0.395111 0.225778,-0.395111 0.225778,-1.2304879 0,-0.3217331 -0.04516,-0.615244 Q 27.120806,8.7616828 27.013562,8.5415496 26.906317,8.315772 26.725695,8.1859499 26.545073,8.0504833 26.27414,8.0504833 q -0.479777,0 -0.69991,0.4007552 -0.220134,0.3951109 -0.220134,1.2248436 z M 28.198897,7.700528 h 2.935109 v 1.0329326 h -0.417688 v -0.615244 h -0.818444 v 3.1157314 h 0.620888 v 0.417688 h -1.710265 v -0.417688 h 0.620888 V 8.1182166 h -0.812799 v 0.615244 h -0.417689 z m 3.764845,0 h 2.319865 v 0.4176886 h -1.851376 v 1.2925768 h 1.710265 v 0.4176885 h -1.710265 v 1.4054661 h 1.879598 v 0.417688 h -2.348087 z"
       id="text1"
       style="font-size:5.64444px;font-family:'PT Mono';-inkscape-font-specification:'PT Mono, Normal';stroke-width:0.264583"
       aria-label="DEEPNOTE" />
    <rect
       style="fill:#000000;stroke-width:0.28737;stroke-dasharray:none"
       id="rect1"
       width="13.245789"
       height="17.661049"
       x="14.585358"
       y="106.26065"
       ry="2.838383" />
    <path
       style="font-weight:bold;font-size:3.175px;font-family:'PT Mono';-inkscape-font-specification:'PT Mono, Bold';fill:#f9f9f9;stroke-width:0.265"
       d="m 15.607551,109.52828 q 0,-0.20003 0.06032,-0.3556 0.06033,-0.15558 0.17145,-0.26353 0.111125,-0.10795 0.263525,-0.16192 0.155575,-0.0572 0.346075,-0.0572 0.200025,0 0.3556,0.0603 0.15875,0.0603 0.2667,0.17145 0.10795,0.10795 0.161925,0.26353 0.05715,0.15557 0.05715,0.3429 0,0.20002 -0.06032,0.3556 -0.06032,0.15557 -0.17145,0.26352 -0.111125,0.10795 -0.2667,0.1651 -0.1524,0.054 -0.3429,0.054 -0.200025,0 -0.358775,-0.0603 -0.155575,-0.0603 -0.263525,-0.16827 -0.10795,-0.11113 -0.1651,-0.2667 -0.05397,-0.15558 -0.05397,-0.3429 z m 0.42545,0 q 0,0.10477 0.02858,0.19367 0.02858,0.0889 0.08255,0.15558 0.05398,0.0667 0.130175,0.10477 0.0762,0.0349 0.174625,0.0349 0.18415,0 0.29845,-0.11748 0.117475,-0.11747 0.117475,-0.37147 0,-0.21908 -0.10795,-0.35243 -0.10795,-0.13652 -0.307975,-0.13652 -0.0889,0 -0.1651,0.0286 -0.0762,0.0254 -0.13335,0.0857 -0.05398,0.0603 -0.08573,0.1524 -0.03175,0.0921 -0.03175,0.22225 z m 2.416176,-0.79375 h 0.59055 v 1.1049 q 0,0.0667 0,0.13335 h 0.2413 v 0.34925 h -0.50165 l -0.07303,-0.23495 h -0.0127 q -0.07303,0.12065 -0.219075,0.20002 -0.14605,0.0794 -0.32385,0.0794 -0.12065,0 -0.22225,-0.0318 -0.09843,-0.0317 -0.168275,-0.10478 -0.06985,-0.073 -0.10795,-0.19685 -0.0381,-0.12382 -0.0381,-0.31115 v -0.63817 h -0.180975 v -0.34925 h 0.593725 v 0.9017 q 0,0.19367 0.06032,0.2794 0.0635,0.0857 0.19685,0.0857 0.117475,0 0.20955,-0.0699 0.09525,-0.0699 0.13335,-0.17145 v -0.67627 h -0.1778 z m 1.225551,0.34925 h -0.314325 v -0.34925 h 0.314325 v -0.36195 l 0.41275,-0.11748 v 0.47943 h 0.83185 v 0.34925 h -0.83185 v 0.45402 q 0,0.24448 0.09207,0.3556 0.09208,0.10795 0.257175,0.10795 0.08573,0 0.155575,-0.0191 0.06985,-0.0222 0.123825,-0.054 0.05715,-0.0318 0.1016,-0.0699 0.04763,-0.0381 0.08573,-0.0699 l 0.1905,0.28575 q -0.05397,0.0635 -0.136525,0.11747 -0.07937,0.0508 -0.174625,0.0921 -0.09208,0.0381 -0.193675,0.0603 -0.1016,0.0222 -0.200025,0.0222 -0.3556,0 -0.536575,-0.19685 -0.1778,-0.20003 -0.1778,-0.63183 z m 1.536701,-0.34925 h 0.53975 l 0.04763,0.1905 h 0.0127 q 0.1651,-0.23495 0.5334,-0.23495 0.14605,0 0.2667,0.0476 0.123825,0.0444 0.20955,0.14288 0.0889,0.0984 0.136525,0.24765 0.04763,0.14922 0.04763,0.35877 0,0.2032 -0.05397,0.3683 -0.05398,0.16193 -0.155575,0.27623 -0.1016,0.1143 -0.24765,0.17462 -0.14605,0.0603 -0.333375,0.0603 -0.09842,0 -0.193675,-0.0159 -0.09525,-0.0127 -0.15875,-0.0444 v 0.65088 h -0.41275 v -1.87325 h -0.238125 z m 1.00965,0.3048 q -0.12065,0 -0.22225,0.0603 -0.09842,0.0603 -0.136525,0.18098 v 0.6604 q 0.04445,0.0349 0.127,0.0572 0.08573,0.019 0.17145,0.019 0.0889,0 0.1651,-0.0286 0.0762,-0.0318 0.13335,-0.0984 0.05715,-0.0667 0.0889,-0.16828 0.03175,-0.1016 0.03175,-0.24447 0,-0.20955 -0.1016,-0.32385 -0.1016,-0.1143 -0.257175,-0.1143 z m 1.943101,-0.3048 h 0.59055 v 1.1049 q 0,0.0667 0,0.13335 h 0.2413 v 0.34925 h -0.50165 l -0.07303,-0.23495 h -0.0127 q -0.07303,0.12065 -0.219075,0.20002 -0.14605,0.0794 -0.32385,0.0794 -0.12065,0 -0.22225,-0.0318 -0.09842,-0.0317 -0.168275,-0.10478 -0.06985,-0.073 -0.10795,-0.19685 -0.0381,-0.12382 -0.0381,-0.31115 v -0.63817 H 23.14818 v -0.34925 h 0.593725 v 0.9017 q 0,0.19367 0.06033,0.2794 0.0635,0.0857 0.19685,0.0857 0.117475,0 0.20955,-0.0699 0.09525,-0.0699 0.13335,-0.17145 v -0.67627 h -0.1778 z m 1.225551,0.34925 h -0.314325 v -0.34925 h 0.314325 v -0.36195 l 0.41275,-0.11748 v 0.47943 h 0.83185 v 0.34925 h -0.83185 v 0.45402 q 0,0.24448 0.09208,0.3556 0.09207,0.10795 0.257175,0.10795 0.08573,0 0.155575,-0.0191 0.06985,-0.0222 0.123825,-0.054 0.05715,-0.0318 0.1016,-0.0699 0.04763,-0.0381 0.08573,-0.0699 l 0.1905,0.28575 q -0.05397,0.0635 -0.136525,0.11747 -0.07937,0.0508 -0.174625,0.0921 -0.09208,0.0381 -0.193675,0.0603 -0.1016,0.0222 -0.200025,0.0222 -0.3556,0 -0.536575,-0.19685 -0.1778,-0.20003 -0.1778,-0.63183 z"
       id="text2"
       aria-label="output" />
    <path
       style="font-weight:bold;font-size:3.175px;font-family:'PT Mono';-inkscape-font-specification:'PT Mono, Bold';fill:#1a1a1a;stroke-width:0.265"
       d="m 17.169651,54.186761 q -0.130175,0.09843 -0.3048,0.149225 -0.174625,0.04763 -0.365125,0.04763 -0.206375,0 -0.3683,-0.06032 -0.15875,-0.06033 -0.269875,-0.168275 -0.10795,-0.111125 -0.1651,-0.2667 -0.05715,-0.155575 -0.05715,-0.3429 0,-0.200025 0.06668,-0.3556 0.06668,-0.155575 0.18415,-0.263525 0.12065,-0.10795 0.282575,-0.161925 0.161925,-0.05715 0.352425,-0.05715 0.1778,0 0.333375,0.04127 0.155575,0.04127 0.238125,0.07937 v 0.5588 h -0.34925 v -0.2921 q -0.09842,-0.02222 -0.19685,-0.02222 -0.0889,0 -0.1778,0.02858 -0.08573,0.0254 -0.155575,0.08572 -0.06668,0.05715 -0.111125,0.14605 -0.04127,0.0889 -0.04127,0.212725 0,0.1016 0.03492,0.187325 0.03493,0.08572 0.09843,0.149225 0.0635,0.0635 0.155575,0.1016 0.09525,0.03493 0.20955,0.03493 0.180975,0 0.295275,-0.0508 0.117475,-0.0508 0.174625,-0.0889 z m 1.219201,-1.4351 h 0.59055 v 1.1049 q 0,0.06668 0,0.13335 h 0.2413 v 0.34925 h -0.50165 l -0.07303,-0.23495 h -0.0127 q -0.07303,0.12065 -0.219075,0.200025 -0.14605,0.07937 -0.32385,0.07937 -0.12065,0 -0.22225,-0.03175 -0.09842,-0.03175 -0.168275,-0.104775 -0.06985,-0.07303 -0.10795,-0.19685 -0.0381,-0.123825 -0.0381,-0.31115 v -0.638175 h -0.180975 v -0.34925 h 0.593725 v 0.9017 q 0,0.193675 0.06032,0.2794 0.0635,0.08573 0.19685,0.08573 0.117475,0 0.20955,-0.06985 0.09525,-0.06985 0.13335,-0.17145 v -0.676275 h -0.1778 z m 1.225551,0.34925 h -0.314325 v -0.34925 h 0.314325 v -0.36195 l 0.41275,-0.117475 v 0.479425 h 0.83185 v 0.34925 h -0.83185 v 0.454025 q 0,0.244475 0.09208,0.3556 0.09208,0.10795 0.257175,0.10795 0.08573,0 0.155575,-0.01905 0.06985,-0.02223 0.123825,-0.05398 0.05715,-0.03175 0.1016,-0.06985 0.04763,-0.0381 0.08573,-0.06985 l 0.1905,0.28575 q -0.05398,0.0635 -0.136525,0.117475 -0.07938,0.0508 -0.174625,0.09207 -0.09207,0.0381 -0.193675,0.06033 -0.1016,0.02222 -0.200025,0.02222 -0.3556,0 -0.536575,-0.19685 -0.1778,-0.200025 -0.1778,-0.631825 z m 1.647826,0.4445 q 0,-0.200025 0.06032,-0.3556 0.06032,-0.155575 0.17145,-0.263525 0.111125,-0.10795 0.263525,-0.161925 0.155575,-0.05715 0.346075,-0.05715 0.200025,0 0.3556,0.06032 0.15875,0.06032 0.2667,0.17145 0.10795,0.10795 0.161925,0.263525 0.05715,0.155575 0.05715,0.3429 0,0.200025 -0.06032,0.3556 -0.06033,0.155575 -0.17145,0.263525 -0.111125,0.10795 -0.2667,0.1651 -0.1524,0.05398 -0.3429,0.05398 -0.200025,0 -0.358775,-0.06032 -0.155575,-0.06033 -0.263525,-0.168275 -0.10795,-0.111125 -0.1651,-0.2667 -0.05397,-0.155575 -0.05397,-0.3429 z m 0.42545,0 q 0,0.104775 0.02858,0.193675 0.02858,0.0889 0.08255,0.155575 0.05398,0.06668 0.130175,0.104775 0.0762,0.03492 0.174625,0.03492 0.18415,0 0.29845,-0.117475 0.117475,-0.117475 0.117475,-0.371475 0,-0.219075 -0.10795,-0.352425 -0.10795,-0.136525 -0.307975,-0.136525 -0.0889,0 -0.1651,0.02858 -0.0762,0.0254 -0.13335,0.08572 -0.05398,0.06032 -0.08573,0.1524 -0.03175,0.09208 -0.03175,0.22225 z m 1.593852,0.79375 v -0.34925 h 0.37465 v -0.889 h -0.377825 v -0.34925 h 0.377825 v -0.0889 q 0,-0.149225 0.0508,-0.257175 0.05398,-0.10795 0.1397,-0.1778 0.08573,-0.06985 0.19685,-0.1016 0.1143,-0.03492 0.23495,-0.03492 0.219075,0 0.358775,0.0381 0.142875,0.03492 0.23495,0.0889 l -0.12065,0.314325 q -0.07303,-0.03493 -0.15875,-0.0635 -0.08255,-0.02857 -0.2159,-0.02857 -0.17145,0 -0.2413,0.07937 -0.06668,0.0762 -0.06668,0.231775 h 0.66675 v 0.34925 h -0.66675 v 0.889 h 0.669925 v 0.34925 z m 1.905,0 v -0.34925 h 0.37465 v -0.889 h -0.377825 v -0.34925 h 0.377825 v -0.0889 q 0,-0.149225 0.0508,-0.257175 0.05398,-0.10795 0.1397,-0.1778 0.08573,-0.06985 0.19685,-0.1016 0.1143,-0.03492 0.23495,-0.03492 0.219075,0 0.358775,0.0381 0.142875,0.03492 0.23495,0.0889 l -0.12065,0.314325 q -0.07302,-0.03493 -0.15875,-0.0635 -0.08255,-0.02857 -0.2159,-0.02857 -0.17145,0 -0.2413,0.07937 -0.06668,0.0762 -0.06668,0.231775 h 0.66675 v 0.34925 h -0.66675 v 0.889 h 0.669925 v 0.34925 z"
       id="text3"
       aria-label="cutoff" />
    <path
       style="font-weight:bold;font-size:3.175px;font-family:'PT Mono';-inkscape-font-specification:'PT Mono, Bold';fill:#1a1a1a;stroke-width:0.265"
       d="m 16.510838,18.792154 h 0.663575 v 1.3716 q 0,0.238125 0.0254,0.4699 0,0.01588 0.0032,0.03175 h 0.2032 v 0.34925 h -0.511175 l -0.04127,-0.2032 h -0.0127 q -0.03175,0.05715 -0.08573,0.1016 -0.05398,0.04445 -0.12065,0.07938 -0.06668,0.03175 -0.14605,0.04763 -0.07938,0.01905 -0.15875,0.01905 -0.149225,0 -0.282575,-0.04763 -0.130175,-0.04763 -0.2286,-0.14605 -0.09843,-0.1016 -0.155575,-0.254 -0.05715,-0.155575 -0.05715,-0.365125 0,-0.2032 0.06033,-0.36195 0.0635,-0.15875 0.17145,-0.2667 0.111125,-0.111125 0.26035,-0.168275 0.149225,-0.06032 0.327025,-0.06032 0.09842,0 0.18415,0.0127 0.0889,0.0095 0.1524,0.03493 v -0.295275 h -0.250825 z m -0.08573,1.9177 q 0.12065,0 0.212725,-0.05715 0.09525,-0.06032 0.123825,-0.17145 v -0.6731 q -0.04445,-0.03492 -0.123825,-0.0508 -0.0762,-0.01905 -0.161925,-0.01905 -0.08573,0 -0.168275,0.02858 -0.07938,0.02858 -0.142875,0.09208 -0.06033,0.06032 -0.09843,0.15875 -0.03492,0.09843 -0.03492,0.2413 0,0.2032 0.1016,0.327025 0.1016,0.123825 0.2921,0.123825 z m 2.714626,0.136525 q -0.04127,0.0381 -0.10795,0.0762 -0.0635,0.03493 -0.1524,0.06668 -0.08573,0.03175 -0.1905,0.0508 -0.104775,0.01905 -0.22225,0.01905 -0.2032,0 -0.365125,-0.05715 -0.15875,-0.05715 -0.269875,-0.1651 -0.111125,-0.111125 -0.17145,-0.263525 -0.05715,-0.155575 -0.05715,-0.352425 0,-0.20955 0.06668,-0.365125 0.06668,-0.15875 0.180975,-0.263525 0.117475,-0.104775 0.27305,-0.155575 0.155575,-0.05398 0.33655,-0.05398 0.12065,0 0.24765,0.03175 0.130175,0.03175 0.238125,0.111125 0.10795,0.0762 0.174625,0.206375 0.06985,0.130175 0.06985,0.3302 0,0.136525 -0.03175,0.295275 h -1.143 q 0.0032,0.1016 0.04127,0.17145 0.04127,0.06985 0.104775,0.1143 0.06668,0.04445 0.149225,0.06668 0.08573,0.01905 0.180975,0.01905 0.1905,0 0.31115,-0.04445 0.123825,-0.04445 0.200025,-0.10795 z m -0.6858,-1.133475 q -0.08255,0 -0.155575,0.02222 -0.07302,0.02222 -0.13335,0.06668 -0.05715,0.04127 -0.09525,0.104775 -0.0381,0.0635 -0.04445,0.142875 h 0.78105 q 0,-0.155575 -0.0889,-0.244475 -0.08573,-0.09207 -0.263525,-0.09207 z m 1.263651,0.0635 h -0.314325 v -0.34925 h 0.314325 v -0.36195 l 0.41275,-0.117475 v 0.479425 h 0.83185 v 0.34925 h -0.83185 v 0.454025 q 0,0.244475 0.09208,0.3556 0.09207,0.10795 0.257175,0.10795 0.08572,0 0.155575,-0.01905 0.06985,-0.02222 0.123825,-0.05397 0.05715,-0.03175 0.1016,-0.06985 0.04763,-0.0381 0.08573,-0.06985 l 0.1905,0.28575 q -0.05397,0.0635 -0.136525,0.117475 -0.07937,0.0508 -0.174625,0.09208 -0.09208,0.0381 -0.193675,0.06032 -0.1016,0.02223 -0.200025,0.02223 -0.3556,0 -0.536575,-0.19685 -0.1778,-0.200025 -0.1778,-0.631825 z m 2.584451,-0.34925 h 0.59055 v 1.1049 q 0,0.06668 0,0.13335 h 0.2413 v 0.34925 h -0.50165 l -0.07303,-0.23495 h -0.0127 q -0.07303,0.12065 -0.219075,0.200025 -0.14605,0.07938 -0.32385,0.07938 -0.12065,0 -0.22225,-0.03175 -0.09843,-0.03175 -0.168275,-0.104775 -0.06985,-0.07302 -0.10795,-0.19685 -0.0381,-0.123825 -0.0381,-0.31115 v -0.638175 h -0.180975 v -0.34925 h 0.593725 v 0.9017 q 0,0.193675 0.06032,0.2794 0.0635,0.08573 0.19685,0.08573 0.117475,0 0.20955,-0.06985 0.09525,-0.06985 0.13335,-0.17145 v -0.676275 h -0.1778 z m 0.895351,0 h 0.555625 l 0.04763,0.20955 h 0.0127 q 0.07303,-0.1016 0.20955,-0.1778 0.136525,-0.0762 0.327025,-0.0762 0.117475,0 0.219075,0.03175 0.104775,0.03175 0.1778,0.104775 0.07303,0.07303 0.1143,0.200025 0.04445,0.123825 0.04445,0.307975 v 0.987425 h -0.41275 v -0.9017 q 0,-0.193675 -0.0889,-0.2794 -0.08573,-0.08573 -0.219075,-0.08573 -0.117475,0 -0.2159,0.06985 -0.09525,0.06668 -0.130175,0.168275 v 1.0287 h -0.41275 v -1.23825 h -0.2286 z m 3.562351,1.419225 q -0.04127,0.0381 -0.10795,0.0762 -0.0635,0.03493 -0.1524,0.06668 -0.08573,0.03175 -0.1905,0.0508 -0.104775,0.01905 -0.22225,0.01905 -0.2032,0 -0.365125,-0.05715 -0.15875,-0.05715 -0.269875,-0.1651 -0.111125,-0.111125 -0.17145,-0.263525 -0.05715,-0.155575 -0.05715,-0.352425 0,-0.20955 0.06668,-0.365125 0.06668,-0.15875 0.180975,-0.263525 0.117475,-0.104775 0.27305,-0.155575 0.155575,-0.05398 0.33655,-0.05398 0.12065,0 0.24765,0.03175 0.130175,0.03175 0.238125,0.111125 0.10795,0.0762 0.174625,0.206375 0.06985,0.130175 0.06985,0.3302 0,0.136525 -0.03175,0.295275 h -1.143 q 0.0032,0.1016 0.04127,0.17145 0.04128,0.06985 0.104775,0.1143 0.06668,0.04445 0.149225,0.06668 0.08573,0.01905 0.180975,0.01905 0.1905,0 0.31115,-0.04445 0.123825,-0.04445 0.200025,-0.10795 z m -0.6858,-1.133475 q -0.08255,0 -0.155575,0.02222 -0.07303,0.02222 -0.13335,0.06668 -0.05715,0.04127 -0.09525,0.104775 -0.0381,0.0635 -0.04445,0.142875 h 0.78105 q 0,-0.155575 -0.0889,-0.244475 -0.08573,-0.09207 -0.263525,-0.09207 z"
       id="text5"
       aria-label="detune" />
    <path
       style="font-weight:bold;font-size:3.175px;font-family:'PT Mono';-inkscape-font-specification:'PT Mono, Bold';fill:#1a1a1a;stroke-width:0.265"
       d="m 13.653336,86.377109 h 0.663575 v 1.3716 q 0,0.238125 0.0254,0.4699 0,0.01587 0.0032,0.03175 h 0.2032 v 0.34925 h -0.511175 l -0.04128,-0.2032 h -0.0127 q -0.03175,0.05715 -0.08573,0.1016 -0.05398,0.04445 -0.12065,0.07937 -0.06668,0.03175 -0.14605,0.04763 -0.07938,0.01905 -0.15875,0.01905 -0.149225,0 -0.282575,-0.04762 -0.130175,-0.04762 -0.2286,-0.14605 -0.09842,-0.1016 -0.155575,-0.254 -0.05715,-0.155575 -0.05715,-0.365125 0,-0.2032 0.06032,-0.36195 0.0635,-0.15875 0.17145,-0.2667 0.111125,-0.111125 0.26035,-0.168275 0.149225,-0.06033 0.327025,-0.06033 0.09843,0 0.18415,0.0127 0.0889,0.0095 0.1524,0.03493 v -0.295275 h -0.250825 z m -0.08573,1.9177 q 0.12065,0 0.212725,-0.05715 0.09525,-0.06032 0.123825,-0.17145 v -0.6731 q -0.04445,-0.03493 -0.123825,-0.0508 -0.0762,-0.01905 -0.161925,-0.01905 -0.08573,0 -0.168275,0.02858 -0.07938,0.02858 -0.142875,0.09208 -0.06033,0.06032 -0.09843,0.15875 -0.03492,0.09842 -0.03492,0.2413 0,0.2032 0.1016,0.327025 0.1016,0.123825 0.2921,0.123825 z m 1.206501,-0.04445 h 0.5588 v -0.889 h -0.5588 v -0.34925 h 0.97155 v 1.23825 h 0.587375 v 0.34925 h -1.558925 z m 0.4826,-1.67005 q 0,-0.09843 0.07302,-0.168275 0.07302,-0.06985 0.2032,-0.06985 0.13335,0 0.212725,0.06985 0.07938,0.06985 0.07938,0.168275 0,0.1016 -0.07938,0.168275 -0.07937,0.0635 -0.212725,0.0635 -0.130175,0 -0.2032,-0.0635 -0.07302,-0.06667 -0.07302,-0.168275 z m 1.358901,1.67005 h 0.3937 v -0.889 h -0.3937 v -0.34925 h 0.714375 l 0.04763,0.20955 h 0.0127 q 0.0889,-0.104775 0.2032,-0.174625 0.1143,-0.06985 0.2667,-0.06985 0.1905,0 0.29845,0.1397 0.111125,0.1397 0.111125,0.466725 h -0.371475 q 0,-0.1143 -0.03493,-0.1651 -0.03175,-0.05397 -0.104775,-0.05397 -0.127,0 -0.206375,0.0635 -0.0762,0.0635 -0.130175,0.14605 v 0.676275 h 0.688975 v 0.34925 h -1.495425 z m 3.476626,0.180975 q -0.04127,0.0381 -0.10795,0.0762 -0.0635,0.03492 -0.1524,0.06667 -0.08573,0.03175 -0.1905,0.0508 -0.104775,0.01905 -0.22225,0.01905 -0.2032,0 -0.365125,-0.05715 -0.15875,-0.05715 -0.269875,-0.1651 -0.111125,-0.111125 -0.17145,-0.263525 -0.05715,-0.155575 -0.05715,-0.352425 0,-0.20955 0.06668,-0.365125 0.06668,-0.15875 0.180975,-0.263525 0.117475,-0.104775 0.27305,-0.155575 0.155575,-0.05398 0.33655,-0.05398 0.12065,0 0.24765,0.03175 0.130175,0.03175 0.238125,0.111125 0.10795,0.0762 0.174625,0.206375 0.06985,0.130175 0.06985,0.3302 0,0.136525 -0.03175,0.295275 h -1.143 q 0.0032,0.1016 0.04128,0.17145 0.04127,0.06985 0.104775,0.1143 0.06668,0.04445 0.149225,0.06668 0.08573,0.01905 0.180975,0.01905 0.1905,0 0.31115,-0.04445 0.123825,-0.04445 0.200025,-0.10795 z m -0.6858,-1.133475 q -0.08255,0 -0.155575,0.02222 -0.07303,0.02223 -0.13335,0.06668 -0.05715,0.04127 -0.09525,0.104775 -0.0381,0.0635 -0.04445,0.142875 h 0.78105 q 0,-0.155575 -0.0889,-0.244475 -0.08573,-0.09207 -0.263525,-0.09207 z m 2.628901,1.14935 q -0.130175,0.09843 -0.3048,0.149225 -0.174625,0.04762 -0.365125,0.04762 -0.206375,0 -0.3683,-0.06032 -0.15875,-0.06033 -0.269875,-0.168275 -0.10795,-0.111125 -0.1651,-0.2667 -0.05715,-0.155575 -0.05715,-0.3429 0,-0.200025 0.06668,-0.3556 0.06668,-0.155575 0.18415,-0.263525 0.12065,-0.10795 0.282575,-0.161925 0.161925,-0.05715 0.352425,-0.05715 0.1778,0 0.333375,0.04127 0.155575,0.04127 0.238125,0.07937 v 0.5588 h -0.34925 v -0.2921 q -0.09842,-0.02222 -0.19685,-0.02222 -0.0889,0 -0.1778,0.02857 -0.08573,0.0254 -0.155575,0.08573 -0.06668,0.05715 -0.111125,0.14605 -0.04127,0.0889 -0.04127,0.212725 0,0.1016 0.03492,0.187325 0.03493,0.08572 0.09843,0.149225 0.0635,0.0635 0.155575,0.1016 0.09525,0.03493 0.20955,0.03493 0.180975,0 0.295275,-0.0508 0.117475,-0.0508 0.174625,-0.0889 z m 0.539751,-1.08585 h -0.314325 v -0.34925 h 0.314325 v -0.36195 l 0.41275,-0.117475 v 0.479425 h 0.83185 v 0.34925 h -0.83185 v 0.454025 q 0,0.244475 0.09208,0.3556 0.09207,0.10795 0.257175,0.10795 0.08573,0 0.155575,-0.01905 0.06985,-0.02223 0.123825,-0.05397 0.05715,-0.03175 0.1016,-0.06985 0.04763,-0.0381 0.08573,-0.06985 l 0.1905,0.28575 q -0.05398,0.0635 -0.136525,0.117475 -0.07937,0.0508 -0.174625,0.09207 -0.09208,0.0381 -0.193675,0.06033 -0.1016,0.02222 -0.200025,0.02222 -0.3556,0 -0.536575,-0.19685 -0.1778,-0.200025 -0.1778,-0.631825 z m 1.724027,0.889 h 0.5588 v -0.889 h -0.5588 v -0.34925 h 0.97155 v 1.23825 h 0.587375 v 0.34925 h -1.558925 z m 0.4826,-1.67005 q 0,-0.09843 0.07302,-0.168275 0.07303,-0.06985 0.2032,-0.06985 0.13335,0 0.212725,0.06985 0.07937,0.06985 0.07937,0.168275 0,0.1016 -0.07937,0.168275 -0.07937,0.0635 -0.212725,0.0635 -0.130175,0 -0.2032,-0.0635 -0.07302,-0.06667 -0.07302,-0.168275 z m 1.346201,1.22555 q 0,-0.200025 0.06033,-0.3556 0.06032,-0.155575 0.17145,-0.263525 0.111125,-0.10795 0.263525,-0.161925 0.155575,-0.05715 0.346075,-0.05715 0.200025,0 0.3556,0.06033 0.15875,0.06032 0.2667,0.17145 0.10795,0.10795 0.161925,0.263525 0.05715,0.155575 0.05715,0.3429 0,0.200025 -0.06033,0.3556 -0.06032,0.155575 -0.17145,0.263525 -0.111125,0.10795 -0.2667,0.1651 -0.1524,0.05397 -0.3429,0.05397 -0.200025,0 -0.358775,-0.06032 -0.155575,-0.06033 -0.263525,-0.168275 -0.10795,-0.111125 -0.1651,-0.2667 -0.05398,-0.155575 -0.05398,-0.3429 z m 0.42545,0 q 0,0.104775 0.02858,0.193675 0.02858,0.0889 0.08255,0.155575 0.05397,0.06668 0.130175,0.104775 0.0762,0.03493 0.174625,0.03493 0.18415,0 0.29845,-0.117475 0.117475,-0.117475 0.117475,-0.371475 0,-0.219075 -0.10795,-0.352425 -0.10795,-0.136525 -0.307975,-0.136525 -0.0889,0 -0.1651,0.02858 -0.0762,0.0254 -0.13335,0.08572 -0.05397,0.06033 -0.08573,0.1524 -0.03175,0.09208 -0.03175,0.22225 z m 1.406526,-0.79375 h 0.555625 l 0.04763,0.20955 h 0.0127 q 0.07302,-0.1016 0.20955,-0.1778 0.136525,-0.0762 0.327025,-0.0762 0.117475,0 0.219075,0.03175 0.104775,0.03175 0.1778,0.104775 0.07302,0.07303 0.1143,0.200025 0.04445,0.123825 0.04445,0.307975 v 0.987425 h -0.41275 v -0.9017 q 0,-0.193675 -0.0889,-0.2794 -0.08573,-0.08572 -0.219075,-0.08572 -0.117475,0 -0.2159,0.06985 -0.09525,0.06667 -0.130175,0.168275 v 1.0287 h -0.41275 v -1.23825 h -0.2286 z"
       id="text6"
       aria-label="direction" />
    <ellipse
       style="fill:none;stroke:#000000;stroke-width:0.364503;stroke-dasharray:none;stroke-opacity:1"
       id="ellipse8"
       cx="21.208254"
       cy="35.389862"
       rx="9.817749"
       ry="9.8177481" />
    <ellipse
       style="fill:none;stroke:#000000;stroke-width:0.364503;stroke-dasharray:none;stroke-opacity:1"
       id="path7-4"
       cx="21.208254"
       cy="67.8591"
       rx="9.817749"
       ry="9.8177481" />
  </g>
  <g
     inkscape:groupmode="layer"
     id="layer2"
     inkscape:label="components"
     style="display:inline">
    <ellipse
       style="fill:none;stroke:#ff0000;stroke-width:0.156112;stroke-dasharray:none;stroke-opacity:1"
       id="path8"
       cx="21.208254"
       cy="35.389862"
       inkscape:label="detune"
       rx="2.4219437"
       ry="2.4219439" />
    <ellipse
       style="fill:none;stroke:#ff0000;stroke-width:0.17184;stroke-dasharray:none;stroke-opacity:1"
       id="ellipse9"
       cx="21.208254"
       cy="67.8591"
       rx="2.4140801"
       ry="2.4140799"
       inkscape:label="cutoff" />
    <ellipse
       style="fill:none;stroke:#0000ff;stroke-width:0.609864;stroke-dasharray:none;stroke-opacity:1"
       id="ellipse10"
       cx="21.208254"
       cy="116.80267"
       rx="2.1950684"
       ry="2.1950681"
       inkscape:label="output" />
    <ellipse
       style="fill:none;stroke:#ff0000;stroke-width:0.609864;stroke-dasharray:none;stroke-opacity:1"
       id="ellipse11"
       cx="21.208254"
       cy="96.786804"
       rx="2.1950684"
       ry="2.1950681"
       inkscape:label="direction" />
  </g>
</svg>
