<?xml version="1.0" encoding="UTF-8" standalone="no"?>
<!-- Created with Inkscape (http://www.inkscape.org/) -->

<svg
   width="50.799999mm"
   height="128.5mm"
   viewBox="0 0 50.799998 128.5"
   version="1.1"
   id="svg1"
   xml:space="preserve"
   inkscape:version="1.4 (e7c3feb1, 2024-10-09)"
   sodipodi:docname="panel-flattened.svg"
   xmlns:inkscape="http://www.inkscape.org/namespaces/inkscape"
   xmlns:sodipodi="http://sodipodi.sourceforge.net/DTD/sodipodi-0.dtd"
   xmlns="http://www.w3.org/2000/svg"
   xmlns:svg="http://www.w3.org/2000/svg"><sodipodi:namedview
     id="namedview1"
     pagecolor="#ffffff"
     bordercolor="#000000"
     borderopacity="0.25"
     inkscape:showpageshadow="2"
     inkscape:pageopacity="0.0"
     inkscape:pagecheckerboard="0"
     inkscape:deskcolor="#d1d1d1"
     inkscape:document-units="mm"
     inkscape:zoom="1.7977414"
     inkscape:cx="68.697311"
     inkscape:cy="240.30153"
     inkscape:window-width="1408"
     inkscape:window-height="1011"
     inkscape:window-x="1552"
     inkscape:window-y="158"
     inkscape:window-maximized="0"
     inkscape:current-layer="layer1"
     showgrid="false" /><defs
     id="defs1"><rect
       x="66.866211"
       y="51.132984"
       width="80.239456"
       height="356.35757"
       id="rect34" /><rect
       x="24.386501"
       y="130.58578"
       width="115.63922"
       height="77.879471"
       id="rect32" /><rect
       x="31.466454"
       y="60.572922"
       width="3.1466453"
       height="18.09321"
       id="rect20" /><rect
       x="63.719566"
       y="1.5733227"
       width="66.866211"
       height="92.039375"
       id="rect19" /><rect
       x="-7.0799518"
       y="-6.2932906"
       width="168.34552"
       height="76.306152"
       id="rect13" /></defs><g
     inkscape:label="Layer 1"
     inkscape:groupmode="layer"
     id="layer1"
     style="display:inline"><path
       id="rect2"
       style="fill:#e6e6e6;stroke:#cccccc;stroke-width:0.36424"
       d="M 0,0 H 50.799999 V 128.5 H 0 Z" /><path
       id="rect50"
       style="display:inline;stroke-width:0.387164"
       d="M 4.3115501,106.17178 H 46.488449 v 11.00065 H 4.3115501 Z" /><path
       id="rect1"
       style="display:inline;stroke-width:0.387162"
       d="M 5.0685637,100.64732 H 45.731436 c 0.419384,0 0.757011,0.33763 0.757011,0.75702 v 12.81682 c 0,0.41939 -0.337627,0.75701 -0.757011,0.75701 H 5.0685637 c -0.4193845,0 -0.7570117,-0.33762 -0.7570117,-0.75701 v -12.81682 c 0,-0.41939 0.3376272,-0.75702 0.7570117,-0.75702 z" /><path
       style="font-size:2.82222px;font-family:Sans;-inkscape-font-specification:'Sans, Normal';fill:#e6e6e6;stroke:#cccccc;stroke-width:0.2"
       d="m 39.427509,103.20184 q 0.125401,0.13781 0.191547,0.33762 0.06752,0.19982 0.06752,0.45338 0,0.25356 -0.0689,0.45475 -0.06752,0.19981 -0.190169,0.33348 -0.12678,0.13919 -0.300412,0.20947 -0.172255,0.0703 -0.394119,0.0703 -0.216352,0 -0.394119,-0.0717 -0.176388,-0.0717 -0.300412,-0.20809 -0.124023,-0.13642 -0.191547,-0.33486 -0.06615,-0.19844 -0.06615,-0.45337 0,-0.25081 0.06615,-0.44924 0.06615,-0.19982 0.192925,-0.34176 0.121268,-0.13504 0.300412,-0.2067 0.180523,-0.0717 0.392741,-0.0717 0.220486,0 0.395497,0.073 0.176388,0.0716 0.299034,0.20532 z m -0.02481,0.791 q 0,-0.39963 -0.179145,-0.61599 -0.179145,-0.21773 -0.489203,-0.21773 -0.312814,0 -0.491959,0.21773 -0.177767,0.21636 -0.177767,0.61599 0,0.40376 0.181901,0.61874 0.181901,0.21359 0.487825,0.21359 0.305924,0 0.486447,-0.21359 0.181901,-0.21498 0.181901,-0.61874 z m 2.261359,0.20119 q 0,0.22324 -0.04961,0.38999 -0.04823,0.16536 -0.159852,0.2756 -0.106109,0.10473 -0.248047,0.15296 -0.141938,0.0482 -0.330729,0.0482 -0.192925,0 -0.336241,-0.051 -0.143316,-0.051 -0.241157,-0.15021 -0.111621,-0.113 -0.16123,-0.27285 -0.04823,-0.15985 -0.04823,-0.39274 v -1.22783 h 0.272851 v 1.24161 q 0,0.16674 0.02205,0.26321 0.02343,0.0965 0.07717,0.17501 0.06063,0.0896 0.163986,0.13504 0.104731,0.0455 0.250803,0.0455 0.14745,0 0.250803,-0.0441 0.103352,-0.0455 0.165364,-0.13642 0.05374,-0.0785 0.07579,-0.17915 0.02343,-0.10197 0.02343,-0.25218 v -1.2485 h 0.272851 z m 1.984374,-0.9853 h -0.733116 v 1.80937 h -0.272852 v -1.80937 h -0.733115 v -0.24253 h 1.739083 z"
       id="text21"
       inkscape:label="text21"
       aria-label="OUT" /><path
       style="font-size:2.82222px;font-family:Sans;-inkscape-font-specification:'Sans, Normal';fill:#e6e6e6;stroke:#cccccc;stroke-width:0.2"
       d="m 24.158879,104.86514 q -0.168121,0.0772 -0.367936,0.13505 -0.198438,0.0565 -0.384473,0.0565 -0.239778,0 -0.439593,-0.0662 -0.199816,-0.0661 -0.340376,-0.19844 -0.141937,-0.13367 -0.219108,-0.33348 -0.07717,-0.20119 -0.07717,-0.46991 0,-0.49196 0.286632,-0.77584 0.28801,-0.28525 0.789615,-0.28525 0.175011,0 0.356912,0.0427 0.183279,0.0413 0.394119,0.14194 v 0.32384 h -0.02481 q -0.04272,-0.0331 -0.124023,-0.0868 -0.08131,-0.0537 -0.159853,-0.0896 -0.09508,-0.0427 -0.216352,-0.0703 -0.119889,-0.0289 -0.272851,-0.0289 -0.344509,0 -0.545703,0.22186 -0.199815,0.22049 -0.199815,0.59807 0,0.39825 0.209462,0.62012 0.209461,0.22048 0.570507,0.22048 0.132292,0 0.263205,-0.0262 0.132292,-0.0262 0.23151,-0.0675 v -0.50299 h -0.549836 v -0.23978 h 0.819932 z m 2.094616,0.15158 h -0.290766 l -0.201193,-0.57188 H 24.87408 l -0.201193,0.57188 h -0.276986 l 0.746896,-2.05189 h 0.363802 z m -0.576019,-0.80615 -0.359668,-1.00734 -0.361046,1.00734 z m 2.185567,-1.00321 h -0.733116 v 1.80936 h -0.272851 v -1.80936 H 26.12396 v -0.24253 h 1.739083 z m 1.627462,1.80936 H 28.13865 v -2.05189 h 1.351855 v 0.24253 h -1.079003 v 0.56224 h 1.079003 v 0.24253 h -1.079003 v 0.76206 h 1.079003 z"
       id="text22"
       aria-label="GATE" /><path
       style="font-size:5.64444px;font-family:Sans;-inkscape-font-specification:'Sans, Normal';fill:#ffffff;stroke:#1a1a1a;stroke-width:0.2"
       d="m 15.224574,11.899129 h -0.518142 v -0.322461 q -0.223242,0.192925 -0.465776,0.300412 -0.242535,0.107487 -0.526411,0.107487 -0.551214,0 -0.876431,-0.424435 -0.322461,-0.424436 -0.322461,-1.176844 0,-0.3913625 0.110243,-0.6972868 0.112999,-0.3059242 0.303168,-0.520898 0.187413,-0.2094616 0.43546,-0.3197046 0.250803,-0.110243 0.518142,-0.110243 0.242535,0 0.429948,0.052365 0.187413,0.049609 0.394118,0.1570963 v -1.33394 h 0.518142 z M 14.706432,11.141208 V 9.3745649 q -0.209461,-0.093707 -0.374826,-0.1295355 -0.165364,-0.035829 -0.361046,-0.035829 -0.435459,0 -0.677994,0.3031682 -0.242534,0.3031681 -0.242534,0.8598954 0,0.548459 0.187413,0.83509 0.187413,0.283876 0.600824,0.283876 0.220486,0 0.446484,-0.09646 0.225998,-0.09922 0.421679,-0.253559 z m 4.114819,-0.727603 h -2.268249 q 0,0.283876 0.08544,0.496093 0.08544,0.209462 0.234267,0.34451 0.143316,0.132291 0.338997,0.198437 0.198437,0.06615 0.43546,0.06615 0.314192,0 0.631141,-0.124024 0.319704,-0.126779 0.454752,-0.248046 h 0.02756 v 0.564995 q -0.261828,0.110243 -0.534679,0.184657 -0.272851,0.07441 -0.573263,0.07441 -0.766189,0 -1.196137,-0.413411 -0.429947,-0.416168 -0.429947,-1.1796 0,-0.7551645 0.410655,-1.1988924 0.413411,-0.443728 1.085893,-0.443728 0.622873,0 0.959114,0.3638018 0.338997,0.3638018 0.338997,1.0335276 z M 18.31689,10.01673 q -0.0028,-0.4078988 -0.206706,-0.6311409 -0.201193,-0.223242 -0.614605,-0.223242 -0.416167,0 -0.664213,0.2452906 -0.245291,0.2452907 -0.278364,0.6090923 z m 3.866772,0.396875 h -2.268249 q 0,0.283876 0.08544,0.496093 0.08544,0.209462 0.234266,0.34451 0.143316,0.132291 0.338997,0.198437 0.198438,0.06615 0.43546,0.06615 0.314193,0 0.631141,-0.124024 0.319705,-0.126779 0.454752,-0.248046 h 0.02756 v 0.564995 q -0.261827,0.110243 -0.534678,0.184657 -0.272852,0.07441 -0.573264,0.07441 -0.766188,0 -1.196136,-0.413411 -0.429948,-0.416168 -0.429948,-1.1796 0,-0.7551645 0.410655,-1.1988924 0.413412,-0.443728 1.085894,-0.443728 0.622873,0 0.959114,0.3638018 0.338997,0.3638018 0.338997,1.0335276 z M 21.6793,10.01673 q -0.0028,-0.4078988 -0.206705,-0.6311409 -0.201194,-0.223242 -0.614605,-0.223242 -0.416167,0 -0.664214,0.2452906 -0.245291,0.2452907 -0.278363,0.6090923 z m 3.999063,0.305924 q 0,0.374827 -0.107487,0.686263 -0.107486,0.30868 -0.303168,0.523654 -0.181901,0.20395 -0.429947,0.316949 -0.245291,0.110243 -0.520898,0.110243 -0.239779,0 -0.43546,-0.05237 -0.192925,-0.05236 -0.394119,-0.162608 v 1.289843 H 22.969142 V 8.8205939 h 0.518142 v 0.3224607 q 0.206706,-0.1736327 0.463021,-0.2893878 0.259071,-0.1185112 0.551215,-0.1185112 0.556727,0 0.865407,0.4216794 0.311436,0.4189233 0.311436,1.165819 z m -0.534678,0.01378 q 0,-0.5567272 -0.190169,-0.8323347 -0.190169,-0.2756074 -0.584288,-0.2756074 -0.223242,0 -0.44924,0.096463 -0.225998,0.096463 -0.432704,0.2535589 v 1.7445946 q 0.220486,0.09922 0.377582,0.135048 0.159853,0.03583 0.361046,0.03583 0.432704,0 0.675238,-0.292144 0.242535,-0.292144 0.242535,-0.865407 z m 3.916382,1.562694 h -0.518142 v -1.752863 q 0,-0.2122181 -0.02481,-0.396875 -0.0248,-0.1874131 -0.09095,-0.2921439 -0.0689,-0.1157551 -0.198437,-0.1708766 -0.129536,-0.057878 -0.336241,-0.057878 -0.212218,0 -0.443728,0.1047308 -0.231511,0.1047309 -0.443728,0.2673392 V 11.899129 H 26.485894 V 8.8205939 h 0.518142 v 0.3417532 q 0.242534,-0.2011934 0.501605,-0.3141924 0.259071,-0.1129991 0.531922,-0.1129991 0.49885,0 0.760677,0.3004121 0.261827,0.3004121 0.261827,0.8654073 z m 3.621481,-1.53789 q 0,0.752409 -0.38585,1.187868 -0.385851,0.43546 -1.033528,0.43546 -0.65319,0 -1.03904,-0.43546 -0.383095,-0.435459 -0.383095,-1.187868 0,-0.7524078 0.383095,-1.1878676 0.38585,-0.4382158 1.03904,-0.4382158 0.647677,0 1.033528,0.4382158 0.38585,0.4354598 0.38585,1.1878676 z m -0.534678,0 q 0,-0.5980677 -0.234267,-0.8874555 -0.234266,-0.2921438 -0.650433,-0.2921438 -0.42168,0 -0.655946,0.2921438 -0.23151,0.2893878 -0.23151,0.8874555 0,0.578776 0.234266,0.879188 0.234267,0.297656 0.65319,0.297656 0.413411,0 0.647677,-0.2949 0.237023,-0.297656 0.237023,-0.881944 z m 2.935219,1.510329 q -0.146072,0.03858 -0.319705,0.06339 -0.170876,0.02481 -0.305924,0.02481 -0.471289,0 -0.716579,-0.253559 Q 33.49459,11.452645 33.49459,10.893162 V 9.2560537 H 33.144569 V 8.8205939 H 33.49459 V 7.9358941 h 0.518142 v 0.8846998 h 1.069357 v 0.4354598 h -1.069357 v 1.4028413 q 0,0.242535 0.01102,0.380339 0.01103,0.135047 0.07717,0.253559 0.06063,0.110243 0.165365,0.162608 0.107487,0.04961 0.325217,0.04961 0.126779,0 0.264583,-0.03583 0.137803,-0.03859 0.198437,-0.06339 h 0.02756 z m 3.202558,-1.457963 h -2.268249 q 0,0.283876 0.08544,0.496093 0.08544,0.209462 0.234266,0.34451 0.143316,0.132291 0.338997,0.198437 0.198438,0.06615 0.43546,0.06615 0.314193,0 0.631141,-0.124024 0.319705,-0.126779 0.454752,-0.248046 h 0.02756 v 0.564995 q -0.261827,0.110243 -0.534678,0.184657 -0.272852,0.07441 -0.573264,0.07441 -0.766188,0 -1.196136,-0.413411 -0.429948,-0.416168 -0.429948,-1.1796 0,-0.7551645 0.410655,-1.1988924 0.413412,-0.443728 1.085894,-0.443728 0.622873,0 0.959114,0.3638018 0.338997,0.3638018 0.338997,1.0335276 z M 37.780285,10.01673 q -0.0028,-0.4078988 -0.206705,-0.6311409 -0.201194,-0.223242 -0.614605,-0.223242 -0.416167,0 -0.664214,0.2452906 -0.24529,0.2452907 -0.278363,0.6090923 z"
       id="text31"
       aria-label="deepnote" /><path
       d="m 23.440598,120.0544 h 0.545015 v 4.07314 h -0.545015 v -0.24598 q -0.320739,0.3135 -0.725883,0.3135 -0.482315,0 -0.800642,-0.35208 -0.315916,-0.35933 -0.315916,-0.89711 0,-0.52572 0.315916,-0.87781 0.313504,-0.3545 0.788584,-0.3545 0.412379,0 0.737941,0.33762 z m -1.28778,2.89147 q 0,0.33762 0.180868,0.54984 0.185691,0.21463 0.467845,0.21463 0.301447,0 0.487138,-0.2074 0.185691,-0.21463 0.185691,-0.54501 0,-0.33039 -0.185691,-0.54502 -0.185691,-0.2098 -0.482315,-0.2098 -0.279742,0 -0.467845,0.21221 -0.185691,0.21463 -0.185691,0.53055 z m 2.517682,-1.1672 h 0.542604 v 0.21704 q 0.156752,-0.16399 0.267684,-0.22186 0.118167,-0.0603 0.296624,-0.0603 0.397909,0 0.62942,0.34726 0.255627,-0.34726 0.692121,-0.34726 0.793407,0 0.793407,0.96221 v 1.45177 h -0.545015 v -1.30466 q 0,-0.33762 -0.08199,-0.47749 -0.08441,-0.14228 -0.277331,-0.14228 -0.224276,0 -0.327974,0.16881 -0.101286,0.16881 -0.101286,0.5426 v 1.21302 h -0.545015 v -1.29743 q 0,-0.627 -0.361736,-0.627 -0.2291,0 -0.335209,0.17122 -0.103697,0.17122 -0.103697,0.54019 v 1.21302 H 24.6705 Z m 4.449351,0 v 2.34887 h -0.542604 v -2.34887 z m -0.624598,-0.97669 q 0,-0.14228 0.103698,-0.24598 0.103698,-0.1037 0.248392,-0.1037 0.147106,0 0.250804,0.1037 0.103697,0.10129 0.103697,0.24839 0,0.14711 -0.103697,0.25081 -0.101286,0.1037 -0.248392,0.1037 -0.147106,0 -0.250804,-0.1037 -0.103698,-0.1037 -0.103698,-0.25322 z"
       id="text2"
       style="font-size:4.9389px;font-family:Futura;-inkscape-font-specification:'Futura, Normal';fill:#918a6f;stroke:#918a6f;stroke-width:0.3"
       aria-label="dmi" /><path
       style="fill:#8080ff;stroke:#8080ff;stroke-width:2.066;stroke-dasharray:none"
       d="M 29.562749,15.202859 H 21.23725 Z"
       id="path17" /><path
       style="font-size:2.82222px;font-family:Sans;-inkscape-font-specification:'Sans, Normal';fill:#e6e6e6;stroke:#cccccc;stroke-width:0.2"
       d="M 9.407014,103.20736 H 8.6738982 v 1.80936 H 8.4010468 v -1.80936 H 7.6679311 v -0.24253 H 9.407014 Z m 1.973349,1.80936 h -0.354155 l -0.686263,-0.81579 H 9.9554728 v 0.81579 H 9.6826214 v -2.05189 h 0.5746416 q 0.186035,0 0.310058,0.0248 0.124024,0.0234 0.223242,0.0854 0.111621,0.0703 0.173633,0.17777 0.06339,0.1061 0.06339,0.27009 0,0.22187 -0.111621,0.37207 -0.111621,0.14883 -0.307303,0.22462 z m -0.638031,-1.4745 q 0,-0.0882 -0.03169,-0.15571 -0.03032,-0.0689 -0.101975,-0.11576 -0.05926,-0.04 -0.140559,-0.0551 -0.0813,-0.0165 -0.191548,-0.0165 H 9.9554728 v 0.77446 H 10.23108 q 0.129536,0 0.225998,-0.0221 0.09646,-0.0234 0.163987,-0.0854 0.06201,-0.0579 0.09095,-0.13229 0.03032,-0.0758 0.03032,-0.19155 z m 1.626084,1.4745 H 11.55813 v -0.20946 h 0.268717 v -1.63297 H 11.55813 v -0.20946 h 0.810286 v 0.20946 h -0.268717 v 1.63297 h 0.268717 z m 2.17592,-0.15158 q -0.16812,0.0772 -0.367936,0.13505 -0.198437,0.0565 -0.384472,0.0565 -0.239779,0 -0.439594,-0.0662 -0.199815,-0.0661 -0.340375,-0.19844 -0.141938,-0.13367 -0.219108,-0.33348 -0.07717,-0.20119 -0.07717,-0.46991 0,-0.49196 0.286632,-0.77584 0.288009,-0.28525 0.789615,-0.28525 0.175011,0 0.356912,0.0427 0.183278,0.0413 0.394118,0.14194 v 0.32384 h -0.02481 q -0.04272,-0.0331 -0.124023,-0.0868 -0.0813,-0.0537 -0.159852,-0.0896 -0.09508,-0.0427 -0.216352,-0.0703 -0.119889,-0.0289 -0.272851,-0.0289 -0.34451,0 -0.545703,0.22186 -0.199815,0.22049 -0.199815,0.59807 0,0.39825 0.209461,0.62012 0.209462,0.22048 0.570508,0.22048 0.132291,0 0.263205,-0.0262 0.132291,-0.0262 0.23151,-0.0675 v -0.50299 h -0.549837 v -0.23978 h 0.819932 z"
       id="text1"
       aria-label="TRIG" /><path
       style="fill:#666666;stroke:#666666;stroke-width:0.276277;stroke-dasharray:none"
       d="M 22.885126,94.501427 H 13.903837 Z"
       id="path2" /><path
       style="font-size:2.82222px;font-family:Sans;-inkscape-font-specification:'Sans, Normal';fill:#4d4d4d;stroke:#4d4d4d;stroke-width:0.2"
       d="M 34.598361,95.527374 H 34.244205 L 33.557943,94.711576 H 33.17347 v 0.815798 h -0.272851 v -2.051897 h 0.574641 q 0.186035,0 0.310059,0.02481 0.124023,0.02343 0.223242,0.08544 0.111621,0.07028 0.173632,0.177767 0.06339,0.106109 0.06339,0.270095 0,0.221864 -0.111621,0.37207 -0.111621,0.148828 -0.307302,0.22462 z m -0.638032,-1.474499 q 0,-0.08819 -0.03169,-0.155719 -0.03032,-0.0689 -0.101975,-0.115755 -0.05926,-0.03996 -0.14056,-0.05512 -0.0813,-0.01654 -0.191547,-0.01654 H 33.17347 V 94.4842 h 0.275608 q 0.129535,0 0.225998,-0.02205 0.09646,-0.02343 0.163986,-0.08544 0.06201,-0.05788 0.09095,-0.132291 0.03032,-0.07579 0.03032,-0.191547 z m 2.254469,1.474499 h -1.351854 v -2.051897 h 1.351854 v 0.242534 h -1.079003 v 0.56224 h 1.079003 v 0.242534 h -1.079003 v 0.762055 h 1.079003 z m 1.92374,-0.585666 q 0,0.11989 -0.0565,0.237023 -0.05512,0.117133 -0.155718,0.198437 -0.110243,0.08819 -0.257693,0.137804 -0.146072,0.04961 -0.352777,0.04961 -0.221864,0 -0.399631,-0.04134 -0.176389,-0.04134 -0.359668,-0.122645 v -0.341753 h 0.01929 q 0.155718,0.129535 0.359668,0.199815 0.203949,0.07028 0.383094,0.07028 0.253559,0 0.394119,-0.09508 0.141937,-0.09508 0.141937,-0.253558 0,-0.136426 -0.06752,-0.201194 -0.06615,-0.06477 -0.202572,-0.100597 -0.103353,-0.02756 -0.22462,-0.04548 -0.119889,-0.01791 -0.254937,-0.04547 -0.272851,-0.05788 -0.405143,-0.197059 -0.130913,-0.14056 -0.130913,-0.36518 0,-0.257693 0.21773,-0.42168 0.217729,-0.165364 0.552592,-0.165364 0.216352,0 0.396875,0.04134 0.180523,0.04134 0.319705,0.101975 v 0.322461 h -0.01929 q -0.117133,-0.09922 -0.30868,-0.163987 -0.190169,-0.06615 -0.389985,-0.06615 -0.219108,0 -0.352777,0.09095 -0.132292,0.09095 -0.132292,0.234266 0,0.128158 0.06615,0.201193 0.06615,0.07304 0.232888,0.111621 0.08819,0.01929 0.250803,0.04685 0.162609,0.02756 0.275608,0.0565 0.228754,0.06063 0.344509,0.183279 0.115755,0.122646 0.115755,0.343131 z m 1.79007,0.585666 h -1.351854 v -2.051897 h 1.351854 v 0.242534 h -1.079003 v 0.56224 h 1.079003 v 0.242534 h -1.079003 v 0.762055 h 1.079003 z m 1.896179,-1.809363 h -0.733116 v 1.809363 H 40.81882 v -1.809363 h -0.733116 v -0.242534 h 1.739083 z"
       id="text3"
       aria-label="RESET" /><path
       style="display:inline;fill:#666666;stroke:#666666;stroke-width:0.266;stroke-dasharray:none"
       d="M 18.258922,70.720811 H 9.9334233 Z"
       id="path21" /><path
       style="font-size:2.82222px;font-family:Sans;-inkscape-font-specification:'Sans, Normal';fill:#4d4d4d;stroke:#4d4d4d;stroke-width:0.2"
       d="m 6.1760054,84.544547 q -0.075792,0.03307 -0.1378037,0.06201 -0.060634,0.02894 -0.1598523,0.06063 -0.08406,0.02618 -0.183279,0.0441 -0.097841,0.01929 -0.2163518,0.01929 -0.223242,0 -0.406521,-0.06201 -0.1819009,-0.06339 -0.3169485,-0.197059 -0.1322916,-0.130914 -0.2067056,-0.332107 -0.074414,-0.202572 -0.074414,-0.469911 0,-0.253559 0.071658,-0.453374 0.071658,-0.199816 0.2067056,-0.337619 0.1309135,-0.13367 0.3155705,-0.20395 0.186035,-0.07028 0.4120331,-0.07028 0.1653645,0 0.3293509,0.03996 0.1653645,0.03996 0.3665579,0.14056 v 0.323839 h -0.020671 q -0.1694985,-0.141938 -0.336241,-0.206706 -0.1667425,-0.06477 -0.3569117,-0.06477 -0.1557182,0 -0.2811195,0.05099 -0.1240234,0.04961 -0.221864,0.155718 -0.095085,0.103353 -0.148828,0.261827 -0.052365,0.157096 -0.052365,0.363802 0,0.216352 0.057878,0.37207 0.059256,0.155718 0.1515841,0.253559 0.096463,0.101975 0.2246201,0.151584 0.1295355,0.04823 0.2728513,0.04823 0.1970593,0 0.369314,-0.06752 0.1722546,-0.06752 0.3224607,-0.202571 h 0.019293 z m 1.7280585,-1.282953 q 0,0.136426 -0.048231,0.253559 -0.046853,0.115755 -0.1322915,0.201193 -0.1061089,0.106109 -0.2508028,0.159853 -0.1446939,0.05236 -0.3651798,0.05236 H 6.8347071 v 0.764811 H 6.5618558 v -2.051898 h 0.556727 q 0.1846569,0 0.3128144,0.03169 0.1281575,0.03032 0.2273761,0.09646 0.1171332,0.07855 0.1805229,0.195681 0.064768,0.117133 0.064768,0.296278 z m -0.2838756,0.0069 q 0,-0.106109 -0.037207,-0.184657 -0.037207,-0.07855 -0.1129991,-0.128157 -0.066146,-0.04272 -0.151584,-0.06063 -0.08406,-0.01929 -0.2135958,-0.01929 H 6.8347071 v 0.819932 h 0.2301322 q 0.1653645,0 0.2687173,-0.02894 0.1033527,-0.03032 0.1681205,-0.09508 0.064768,-0.06615 0.09095,-0.139181 0.027561,-0.07304 0.027561,-0.163987 z m 1.8617283,1.424891 H 8.3712187 V 84.483913 H 8.7984102 V 83.108632 H 8.3712187 v -0.187413 q 0.086816,0 0.186035,-0.01378 0.099219,-0.01516 0.1502061,-0.04272 0.06339,-0.03445 0.099219,-0.08682 0.037207,-0.05374 0.042719,-0.143316 h 0.2135957 v 1.849326 h 0.4189233 z"
       id="text28"
       aria-label="CP1" /><path
       style="font-size:2.82222px;font-family:Sans;-inkscape-font-specification:'Sans, Normal';fill:#4d4d4d;stroke:#4d4d4d;stroke-width:0.2"
       d="m 42.954382,84.547301 q -0.07579,0.03307 -0.137803,0.06201 -0.06063,0.02894 -0.159853,0.06063 -0.08406,0.02618 -0.183279,0.0441 -0.09784,0.01929 -0.216351,0.01929 -0.223242,0 -0.406521,-0.06201 -0.181901,-0.06339 -0.316949,-0.197059 -0.132291,-0.130914 -0.206705,-0.332107 -0.07441,-0.202572 -0.07441,-0.469911 0,-0.253559 0.07166,-0.453374 0.07166,-0.199815 0.206706,-0.337619 0.130914,-0.13367 0.315571,-0.20395 0.186035,-0.07028 0.412033,-0.07028 0.165364,0 0.329351,0.03996 0.165364,0.03996 0.366557,0.140559 v 0.323839 h -0.02067 q -0.169499,-0.141938 -0.336241,-0.206705 -0.166743,-0.06477 -0.356912,-0.06477 -0.155718,0 -0.281119,0.05099 -0.124024,0.04961 -0.221864,0.155718 -0.09508,0.103353 -0.148828,0.261827 -0.05237,0.157097 -0.05237,0.363802 0,0.216352 0.05788,0.37207 0.05926,0.155718 0.151584,0.253559 0.09646,0.101975 0.22462,0.151584 0.129535,0.04823 0.272851,0.04823 0.19706,0 0.369314,-0.06752 0.172255,-0.06752 0.322461,-0.202572 h 0.01929 z m 1.728059,-1.282953 q 0,0.136426 -0.04823,0.253559 -0.04685,0.115755 -0.132292,0.201194 -0.106109,0.106108 -0.250803,0.159852 -0.144694,0.05237 -0.365179,0.05237 h -0.272852 v 0.764811 h -0.272851 v -2.051897 h 0.556727 q 0.184657,0 0.312814,0.03169 0.128158,0.03032 0.227376,0.09646 0.117134,0.07855 0.180523,0.195681 0.06477,0.117133 0.06477,0.296278 z m -0.283876,0.0069 q 0,-0.106108 -0.03721,-0.184657 -0.03721,-0.07855 -0.112999,-0.128157 -0.06614,-0.04272 -0.151584,-0.06063 -0.08406,-0.01929 -0.213596,-0.01929 h -0.270095 v 0.819932 h 0.230132 q 0.165365,0 0.268718,-0.02894 0.103352,-0.03032 0.16812,-0.09508 0.06477,-0.06615 0.09095,-0.139182 0.02756,-0.07304 0.02756,-0.163987 z m 1.978862,1.424891 h -1.389062 v -0.28801 q 0.144694,-0.124023 0.289388,-0.248047 0.146072,-0.124023 0.271474,-0.246668 0.264583,-0.256315 0.362423,-0.406521 0.09784,-0.151584 0.09784,-0.326595 0,-0.159852 -0.106109,-0.249425 -0.104731,-0.09095 -0.293522,-0.09095 -0.125401,0 -0.271473,0.0441 -0.146072,0.0441 -0.285254,0.135048 h -0.01378 V 82.72967 q 0.09784,-0.04823 0.260449,-0.08819 0.163986,-0.03996 0.316948,-0.03996 0.315571,0 0.494716,0.152962 0.179145,0.151585 0.179145,0.412034 0,0.117133 -0.03032,0.219108 -0.02894,0.100596 -0.08682,0.191547 -0.05374,0.08544 -0.126779,0.16812 -0.07166,0.08268 -0.175011,0.183279 -0.14745,0.144694 -0.304546,0.28112 -0.157096,0.135047 -0.293522,0.250802 h 1.103808 z"
       id="text14"
       aria-label="CP2" /><path
       style="display:inline;fill:#666666;stroke:#666666;stroke-width:0.338429;stroke-dasharray:none"
       d="M 36.173614,70.720811 H 22.696976 Z"
       id="path14" /><path
       style="display:inline;fill:#666666;stroke:#666666;stroke-width:0.338429;stroke-dasharray:none"
       d="M 35.732088,52.207637 H 22.25545 Z"
       id="path4" /><path
       id="path6"
       style="display:inline;fill:none;stroke:#666666;stroke-width:0.3"
       d="m 38.615964,57.033404 a 5.6197114,5.6197114 0 0 1 -2.525908,-6.361869 5.6197114,5.6197114 0 0 1 5.493943,-4.082912 5.6197114,5.6197114 0 0 1 5.363018,4.253425 5.6197114,5.6197114 0 0 1 -2.724444,6.27941" /><path
       style="display:inline;fill:#333333;stroke:#666666;stroke-width:0.376;stroke-dasharray:none"
       d="m 41.495749,46.587928 v 2.49765 z"
       id="path7" /><path
       style="font-size:2.82222px;font-family:'Devanagari Sangam MN';-inkscape-font-specification:'Devanagari Sangam MN, Normal';fill:#4d4d4d;stroke:#4d4d4d;stroke-width:0.2"
       d="m 36.056637,43.095716 h 0.712445 q 0.12678,0 0.237023,0.03445 0.111621,0.03445 0.202571,0.09784 0.09233,0.06201 0.163987,0.150206 0.07304,0.08819 0.122645,0.194303 0.04961,0.106109 0.07579,0.228754 0.02618,0.121267 0.02618,0.252181 0,0.205327 -0.06063,0.381716 -0.06063,0.175011 -0.170877,0.305924 -0.108865,0.129536 -0.261827,0.20395 -0.151584,0.07304 -0.334863,0.07304 h -0.712445 z m 0.20395,1.736327 h 0.427191 q 0.151584,0 0.28112,-0.05237 0.129535,-0.05237 0.223242,-0.151584 0.09508,-0.09922 0.14745,-0.242534 0.05374,-0.144694 0.05374,-0.327973 0,-0.199815 -0.05374,-0.345887 -0.05374,-0.14745 -0.148828,-0.242535 -0.09508,-0.09508 -0.22462,-0.14056 -0.128158,-0.04685 -0.278364,-0.04685 h -0.427191 z m 3.059242,-1.736327 v 0.186035 h -1.077625 v 0.650434 h 1.014235 v 0.186035 h -1.014235 v 0.713823 h 1.125856 v 0.186035 h -1.329805 v -1.922362 z m 1.876887,0 v 0.186035 h -0.636653 v 1.736327 h -0.20395 v -1.736327 h -0.635275 v -0.186035 z m 0.627007,0 v 1.295355 q 0,0.117133 0.04272,0.21084 0.0441,0.09233 0.112999,0.157096 0.07028,0.06477 0.157096,0.09922 0.0882,0.03445 0.177767,0.03445 0.09371,0 0.187413,-0.03169 0.09508,-0.03169 0.169499,-0.09371 0.07579,-0.06201 0.122645,-0.15434 0.04823,-0.09371 0.04823,-0.216352 v -1.300867 h 0.202572 v 1.287087 q 0,0.16812 -0.06477,0.297656 -0.06477,0.128157 -0.169499,0.216352 -0.103352,0.08682 -0.234266,0.132291 -0.129535,0.04547 -0.260449,0.04547 -0.124023,0 -0.248047,-0.04547 -0.124023,-0.0441 -0.22462,-0.130913 -0.09922,-0.08819 -0.16123,-0.21773 -0.06201,-0.130914 -0.06201,-0.303168 v -1.281575 z m 2.047763,0 0.978406,1.661913 v -1.661913 h 0.20395 v 1.922362 H 44.78099 l -0.978406,-1.660535 v 1.660535 h -0.203949 v -1.922362 z m 3.015145,0 v 0.186035 h -1.077625 v 0.650434 h 1.014235 v 0.186035 h -1.014235 v 0.713823 h 1.125856 v 0.186035 h -1.329806 v -1.922362 z"
       id="text15"
       aria-label="DETUNE" /><path
       style="display:inline;fill:#333333;stroke:#666666;stroke-width:0.376;stroke-dasharray:none"
       d="m 41.93728,65.46347 v 2.49765 z"
       id="path13" /><path
       id="path12"
       style="display:inline;fill:none;stroke:#666666;stroke-width:0.3"
       d="M 39.057488,75.908946 A 5.6197114,5.6197114 0 0 1 36.53158,69.547077 5.6197114,5.6197114 0 0 1 42.025524,65.464165 5.6197114,5.6197114 0 0 1 47.388542,69.71759 5.6197114,5.6197114 0 0 1 44.664098,75.997" /><path
       style="font-size:2.82222px;font-family:Sans;-inkscape-font-specification:'Sans, Normal';fill:#4d4d4d;stroke:#4d4d4d;stroke-width:0.2"
       d="m 40.226447,63.644142 h -0.354156 l -0.686262,-0.815798 h -0.384473 v 0.815798 h -0.272851 v -2.051897 h 0.574641 q 0.186035,0 0.310059,0.02481 0.124023,0.02343 0.223242,0.08544 0.111621,0.07028 0.173633,0.177767 0.06339,0.106108 0.06339,0.270095 0,0.221864 -0.111621,0.37207 -0.111621,0.148828 -0.307302,0.22462 z m -0.638031,-1.4745 q 0,-0.08819 -0.03169,-0.155718 -0.03032,-0.0689 -0.101975,-0.115755 -0.05926,-0.03996 -0.14056,-0.05512 -0.0813,-0.01654 -0.191547,-0.01654 h -0.321083 v 0.774457 h 0.275608 q 0.129535,0 0.225998,-0.02205 0.09646,-0.02343 0.163986,-0.08544 0.06201,-0.05788 0.09095,-0.132291 0.03032,-0.07579 0.03032,-0.191548 z m 2.520429,1.4745 H 41.81808 L 41.616886,63.072257 H 40.72943 l -0.201193,0.571885 h -0.276986 l 0.746896,-2.051897 h 0.363802 z M 41.532826,62.83799 41.173158,61.830645 40.812112,62.83799 Z m 2.185567,-1.003211 h -0.733116 v 1.809363 H 42.712426 V 61.834779 H 41.97931 v -0.242534 h 1.739083 z m 1.627462,1.809363 H 43.994 v -2.051897 h 1.351855 v 0.242534 h -1.079003 v 0.56224 h 1.079003 v 0.242534 h -1.079003 v 0.762055 h 1.079003 z"
       id="text25"
       aria-label="RATE" /><path
       style="font-size:2.82222px;font-family:'Devanagari Sangam MN';-inkscape-font-specification:'Devanagari Sangam MN, Normal';fill:#4d4d4d;stroke:#4d4d4d;stroke-width:0.2"
       d="m 37.411248,24.736999 v 0.186035 h -0.636653 v 1.736327 h -0.20395 V 24.923034 H 35.93537 v -0.186035 z m 1.306379,0 0.698665,1.922362 H 39.204074 L 38.98221,26.047512 h -0.817176 l -0.221864,0.611849 h -0.21084 l 0.704177,-1.922362 z m -0.143316,0.190169 -0.352777,0.966004 h 0.704177 z m 2.651344,0.356912 q 0,0.07166 -0.01792,0.14056 -0.01654,0.0689 -0.05099,0.130913 -0.03445,0.06063 -0.08544,0.111621 -0.04961,0.05099 -0.117133,0.0882 0.07579,0.01929 0.122646,0.05925 0.04823,0.03859 0.07441,0.09095 0.02756,0.05099 0.03721,0.112999 0.01102,0.06063 0.01102,0.124023 v 0.289388 q 0,0.06201 0.01654,0.121267 0.01791,0.05788 0.0441,0.106109 h -0.221863 q -0.01378,-0.02205 -0.02205,-0.04961 -0.0069,-0.02894 -0.01102,-0.05926 -0.0041,-0.03032 -0.0055,-0.05788 -0.0014,-0.02894 -0.0014,-0.04961 v -0.305924 q 0,-0.05512 -0.01929,-0.108865 -0.01792,-0.05512 -0.06063,-0.09784 -0.04134,-0.04272 -0.108865,-0.0689 -0.06752,-0.02618 -0.163986,-0.02618 h -0.581532 v 0.824066 H 39.86002 v -1.922362 h 0.785481 q 0.14056,0 0.248047,0.04961 0.108865,0.04823 0.181901,0.12678 0.07441,0.07717 0.111621,0.175011 0.03859,0.09784 0.03859,0.195681 z m -1.161686,0.370692 h 0.581532 q 0.07579,0 0.143316,-0.02894 0.06752,-0.02894 0.118511,-0.07993 0.05237,-0.05099 0.08268,-0.118511 0.03032,-0.06752 0.03032,-0.146072 0,-0.07717 -0.02894,-0.141938 -0.02756,-0.06615 -0.07855,-0.114377 -0.04961,-0.04823 -0.118511,-0.07441 -0.0689,-0.02756 -0.148828,-0.02756 h -0.581532 z m 1.796961,0.03996 q 0,0.198437 0.05236,0.352777 0.05374,0.154341 0.144694,0.260449 0.09095,0.106109 0.21084,0.162609 0.119889,0.05512 0.253559,0.05512 0.07855,0 0.15434,-0.02618 0.07717,-0.02756 0.146072,-0.07441 0.07028,-0.04685 0.129535,-0.111621 0.05926,-0.06615 0.103353,-0.141938 0.0441,-0.07717 0.0689,-0.162609 0.02618,-0.08544 0.02894,-0.173632 h -0.596691 v -0.180523 h 0.790994 v 1.004589 H 43.22243 l -0.06063,-0.341753 q -0.04823,0.07441 -0.119889,0.144694 -0.07028,0.0689 -0.154341,0.124023 -0.08406,0.05512 -0.176388,0.08819 -0.09233,0.03307 -0.183279,0.03307 -0.201194,0 -0.362424,-0.07717 -0.16123,-0.07855 -0.274229,-0.213596 -0.113,-0.136425 -0.173633,-0.321082 -0.06063,-0.186035 -0.06063,-0.401009 0,-0.125402 0.02481,-0.248047 0.02618,-0.124023 0.07579,-0.235644 0.05099,-0.111621 0.124023,-0.206706 0.07441,-0.09646 0.169499,-0.165364 0.09508,-0.07028 0.21084,-0.110243 0.117133,-0.03996 0.25218,-0.03996 0.170877,0 0.304547,0.0441 0.135047,0.0441 0.235644,0.124023 0.100597,0.07993 0.166742,0.190169 0.06752,0.110243 0.104731,0.242535 h -0.216352 q -0.07441,-0.214974 -0.220486,-0.318327 -0.144693,-0.103352 -0.374826,-0.103352 -0.143316,0 -0.263205,0.06614 -0.119889,0.06615 -0.206705,0.179145 -0.08682,0.112999 -0.135048,0.263205 -0.04823,0.150206 -0.04823,0.318327 z m 3.318313,-0.957736 v 0.186035 h -1.077625 v 0.650434 h 1.014236 v 0.186035 h -1.014236 v 0.713823 h 1.125857 v 0.186035 h -1.329806 v -1.922362 z m 1.876887,0 v 0.186035 h -0.636653 v 1.736327 h -0.20395 v -1.736327 h -0.635275 v -0.186035 z"
       id="text33"
       aria-label="TARGET" /><path
       id="path9"
       style="display:inline;fill:none;stroke:#666666;stroke-width:0.3"
       d="m 38.615964,38.828921 a 5.6197114,5.6197114 0 0 1 -2.525908,-6.361869 5.6197114,5.6197114 0 0 1 5.493943,-4.082912 5.6197114,5.6197114 0 0 1 5.363018,4.253425 5.6197114,5.6197114 0 0 1 -2.724444,6.27941" /><path
       style="display:inline;fill:#333333;stroke:#666666;stroke-width:0.376;stroke-dasharray:none"
       d="m 41.495749,28.383447 v 2.49765 z"
       id="path10" /><path
       style="font-size:2.82222px;font-family:'Devanagari Sangam MN';-inkscape-font-specification:'Devanagari Sangam MN, Normal';fill:#4d4d4d;stroke:#4d4d4d;stroke-width:0.2"
       d="m 15.776595,43.948322 v -1.540645 q -0.06752,0.103353 -0.139182,0.172254 -0.07028,0.06752 -0.150206,0.108865 -0.07993,0.04134 -0.170876,0.05926 -0.09095,0.01654 -0.198438,0.01654 v -0.195681 q 0.110243,0 0.201194,-0.02481 0.09095,-0.02618 0.162608,-0.06752 0.07166,-0.04134 0.125402,-0.09371 0.05374,-0.05237 0.08957,-0.106109 0.03583,-0.05512 0.05512,-0.106109 0.02067,-0.05099 0.02481,-0.09095 h 0.20395 v 1.868618 z m 1.486902,-0.268717 0.549837,-1.653645 h 0.22462 l -0.640787,1.922362 H 17.14223 L 16.48904,42.02596 h 0.22462 z m 1.065223,0.325217 h -0.188791 l 0.647677,-2.045007 h 0.179145 z m 2.528698,-1.019748 q 0,0.221864 -0.05788,0.407899 -0.0565,0.186035 -0.166743,0.321083 -0.110243,0.13367 -0.271473,0.208084 -0.159853,0.07441 -0.366558,0.07441 -0.206706,0 -0.367936,-0.07441 -0.159852,-0.07441 -0.270095,-0.208084 -0.108865,-0.135048 -0.166743,-0.321083 -0.0565,-0.186035 -0.0565,-0.407899 0,-0.221864 0.0565,-0.406521 0.05788,-0.186035 0.166743,-0.318326 0.110243,-0.13367 0.270095,-0.208084 0.16123,-0.07441 0.367936,-0.07441 0.206705,0 0.366558,0.07441 0.16123,0.07441 0.271473,0.208084 0.110243,0.132291 0.166743,0.318326 0.05788,0.184657 0.05788,0.406521 z m -0.205327,0 q 0,-0.194303 -0.05237,-0.347265 -0.05099,-0.15434 -0.14056,-0.260449 -0.08819,-0.107487 -0.208083,-0.162608 -0.11989,-0.0565 -0.256315,-0.0565 -0.139182,0 -0.259071,0.0565 -0.119889,0.05512 -0.208084,0.162608 -0.08819,0.106109 -0.139182,0.260449 -0.04961,0.152962 -0.04961,0.347265 0,0.194304 0.04961,0.348644 0.05099,0.15434 0.139182,0.261827 0.08819,0.106109 0.208084,0.162608 0.119889,0.0565 0.259071,0.0565 0.136425,0 0.256315,-0.0565 0.119889,-0.0565 0.208083,-0.162608 0.08957,-0.107487 0.14056,-0.261827 0.05237,-0.15434 0.05237,-0.348644 z m 0.740005,-0.03169 q 0,0.220486 0.0565,0.383095 0.05788,0.16123 0.150206,0.268717 0.09371,0.106109 0.21084,0.158474 0.118511,0.05099 0.239778,0.05099 0.125401,0 0.225998,-0.04548 0.101975,-0.04547 0.176389,-0.119889 0.07579,-0.07579 0.124023,-0.170876 0.04961,-0.09646 0.07028,-0.19706 h 0.208084 q -0.02894,0.148828 -0.09509,0.279742 -0.06615,0.130913 -0.16812,0.227376 -0.100597,0.09646 -0.237023,0.152962 -0.135047,0.05512 -0.304546,0.05512 -0.197059,0 -0.356912,-0.07028 -0.158474,-0.07166 -0.271473,-0.205328 -0.111621,-0.135047 -0.172255,-0.327973 -0.06063,-0.194303 -0.06063,-0.439594 0,-0.126779 0.0248,-0.248046 0.02618,-0.122646 0.07579,-0.230132 0.05099,-0.108865 0.124024,-0.199816 0.07441,-0.09233 0.169498,-0.157096 0.09509,-0.06615 0.21084,-0.103353 0.117133,-0.03721 0.252181,-0.03721 0.170876,0 0.305924,0.04548 0.135048,0.04548 0.234266,0.12678 0.100597,0.07993 0.168121,0.191547 0.06752,0.110243 0.104731,0.242535 h -0.216352 q -0.07579,-0.216352 -0.221864,-0.321083 -0.144694,-0.106109 -0.374826,-0.106109 -0.143316,0 -0.263205,0.06339 -0.119889,0.06339 -0.206706,0.172254 -0.08682,0.108865 -0.135047,0.253559 -0.04823,0.144694 -0.04823,0.307302 z m 3.256302,-0.927419 v 0.186035 h -0.636653 v 1.736327 h -0.20395 V 42.211995 H 23.17252 V 42.02596 Z"
       id="text18"
       aria-label="1V/OCT" /><path
       style="display:inline;fill:#666666;stroke:#666666;stroke-width:0.438667;stroke-dasharray:none"
       d="M 20.037425,33.364612 7.2718671,28.618648 Z"
       id="path18" /><path
       style="display:inline;fill:#666666;stroke:#666666;stroke-width:0.266;stroke-dasharray:none"
       d="M 14.138011,42.982318 H 9.4918971 Z"
       id="path1" /><path
       style="display:inline;fill:#666666;stroke:#666666;stroke-width:0.338429;stroke-dasharray:none"
       d="M 35.732088,33.640787 H 22.25545 Z"
       id="path3" /><path
       style="display:inline;fill:#666666;stroke:#666666;stroke-width:0.444981;stroke-dasharray:none"
       d="M 20.03575,52.465208 7.2735419,57.35006 Z"
       id="path5" /></g><g
     inkscape:groupmode="layer"
     id="layer2"
     inkscape:label="components"
     style="display:none"><ellipse
       style="display:inline;fill:none;stroke:#0000ff;stroke-width:0.330606;stroke-dasharray:none;stroke-opacity:1"
       id="ellipse1"
       cx="40.714596"
       cy="110.76923"
       rx="1.1899413"
       ry="1.189941"
       inkscape:label="output" /><ellipse
       style="display:inline;fill:none;stroke:#0000ff;stroke-width:0.330606;stroke-dasharray:none;stroke-opacity:1"
       id="ellipse51"
       cx="25.910364"
       cy="110.97738"
       rx="1.1899413"
       ry="1.189941"
       inkscape:label="gate" /><ellipse
       style="display:inline;fill:none;stroke:#0000ff;stroke-width:0.330606;stroke-dasharray:none;stroke-opacity:1"
       id="ellipse2"
       cx="11.106133"
       cy="110.76924"
       rx="1.1899413"
       ry="1.189941"
       inkscape:label="trigger" /><ellipse
       style="display:inline;fill:none;stroke:#00ff00;stroke-width:0.330606;stroke-dasharray:none;stroke-opacity:1"
       id="ellipse3"
       cx="11.106133"
       cy="94.501427"
       rx="1.1899413"
       ry="1.1899412"
       inkscape:label="reset" /><ellipse
       style="display:inline;fill:none;stroke:#ff0000;stroke-width:0.330606;stroke-dasharray:none;stroke-opacity:1"
       id="ellipse57"
       cx="37.362701"
       cy="83.667427"
       rx="1.1899413"
       ry="1.1899412"
       inkscape:label="cp2" /><rect
       style="display:inline;fill:none;stroke:#ffff00;stroke-width:0.302463;stroke-dasharray:none;stroke-opacity:1"
       id="rect22"
       width="12"
       height="9"
       x="19.910364"
       y="79.167427"
       inkscape:label="curve" /><ellipse
       style="display:inline;fill:none;stroke:#ff0000;stroke-width:0.330606;stroke-dasharray:none;stroke-opacity:1"
       id="ellipse58"
       cx="14.435679"
       cy="83.667427"
       rx="1.1899413"
       ry="1.1899412"
       inkscape:label="cp1" /><ellipse
       style="display:inline;fill:none;stroke:#ff0000;stroke-width:0.330606;stroke-dasharray:none;stroke-opacity:1"
       id="ellipse21"
       cx="20.619022"
       cy="70.72081"
       rx="1.1899413"
       ry="1.1899412"
       inkscape:label="rate_trim" /><ellipse
       style="display:inline;fill:none;stroke:#00ff00;stroke-width:0.330606;stroke-dasharray:none;stroke-opacity:1"
       id="ellipse8"
       cx="7.6228633"
       cy="70.72081"
       rx="1.1899413"
       ry="1.1899412"
       inkscape:label="rate" /><ellipse
       style="display:inline;fill:none;stroke:#ff0000;stroke-width:0.330606;stroke-dasharray:none;stroke-opacity:1"
       id="ellipse56"
       cx="41.937279"
       cy="70.72081"
       rx="1.1899413"
       ry="1.1899412"
       inkscape:label="rate" /><ellipse
       style="display:inline;fill:none;stroke:#00ff00;stroke-width:0.330606;stroke-dasharray:none;stroke-opacity:1"
       id="ellipse18"
       cx="7.1813369"
       cy="42.982319"
       rx="1.1899413"
       ry="1.1899412"
       inkscape:label="1voct" /><ellipse
       style="display:inline;fill:none;stroke:#ff0000;stroke-width:0.330606;stroke-dasharray:none;stroke-opacity:1"
       id="ellipse17"
       cx="20.177496"
       cy="33.640789"
       rx="1.1899413"
       ry="1.1899412"
       inkscape:label="target_trim" /><ellipse
       style="display:inline;fill:none;stroke:#00ff00;stroke-width:0.330606;stroke-dasharray:none;stroke-opacity:1"
       id="ellipse52"
       cx="7.1813369"
       cy="28.349117"
       rx="1.1899413"
       ry="1.1899412"
       inkscape:label="target" /><rect
       style="fill:none;stroke:#ffff00;stroke-width:0.302463;stroke-dasharray:none;stroke-opacity:1"
       id="rect23"
       width="12"
       height="9"
       x="19.174488"
       y="18.016577"
       inkscape:label="pitch" /><ellipse
       style="display:inline;fill:none;stroke:#ff0000;stroke-width:0.330606;stroke-dasharray:none;stroke-opacity:1"
       id="ellipse55"
       cx="41.49575"
       cy="33.640789"
       rx="1.1899413"
       ry="1.1899412"
       inkscape:label="target" /><ellipse
       style="display:inline;fill:none;stroke:#ff0000;stroke-width:0.330606;stroke-dasharray:none;stroke-opacity:1"
       id="ellipse54"
       cx="41.49575"
       cy="52.207642"
       rx="1.1899413"
       ry="1.1899412"
       inkscape:label="detune" /><ellipse
       style="display:inline;fill:none;stroke:#ff0000;stroke-width:0.330606;stroke-dasharray:none;stroke-opacity:1"
       id="ellipse5"
       cx="20.177496"
       cy="52.207638"
       rx="1.1899413"
       ry="1.1899412"
       inkscape:label="detune_trim" /><ellipse
       style="display:inline;fill:none;stroke:#00ff00;stroke-width:0.330606;stroke-dasharray:none;stroke-opacity:1"
       id="ellipse53"
       cx="7.1813369"
       cy="57.49931"
       rx="1.1899413"
       ry="1.1899412"
       inkscape:label="detune" /><g
       id="g4"
       transform="translate(36.305418,11.479683)"><ellipse
         style="display:inline;fill:none;stroke:#ff00ff;stroke-width:0.330606;stroke-dasharray:none;stroke-opacity:1"
         id="ellipse4"
         cx="-10.395054"
         cy="83.021744"
         rx="1.1899413"
         ry="1.1899412"
         inkscape:label="reset" /><ellipse
         style="display:inline;fill:none;stroke:#ff0000;stroke-width:0.330606;stroke-dasharray:none;stroke-opacity:1"
         id="ellipse6"
         cx="-10.395054"
         cy="83.021744"
         rx="1.1899413"
         ry="1.1899412"
         inkscape:label="reset" /></g></g></svg>
